<svg width="245" height="216" viewBox="0 0 245 216" fill="none" xmlns="http://www.w3.org/2000/svg">
<path d="M28.0877 107.737C28.0397 135.14 38.4958 161.531 57.3279 181.539C76.16 201.547 101.953 213.669 129.457 215.438C156.961 217.206 184.109 208.488 205.376 191.057C226.643 173.627 240.431 148.795 243.933 121.614C247.435 94.4336 240.388 66.9477 224.227 44.7504C208.066 22.5532 184.004 7.3129 156.94 2.13128C129.876 -3.05036 101.842 2.21612 78.5457 16.8589C55.2491 31.5016 38.4398 54.4201 31.5391 80.9499L136.449 107.925L28.0877 107.737Z" fill="#FF7A00" fill-opacity="0.47"/>
<path d="M2.79031 80.3195C1.15119 87.8007 0.223833 95.4193 0.0206078 103.074L122.196 106.302L2.79031 80.3195Z" fill="#FF7A00"/>
</svg>
