<svg width="64" height="12" viewBox="0 0 64 12" fill="none" xmlns="http://www.w3.org/2000/svg">
<path d="M63.0957 11.215C63.0957 10.5521 62.713 10.3218 62.0758 10.3218H57.2821C55.0316 10.3218 54.2386 8.92841 54.135 7.96841H60.7902C62.7318 7.96841 63.3043 6.57018 63.3043 5.67001C63.3043 4.70931 62.6817 3.37224 60.7902 3.37224H57.1951C53.9228 3.37224 52.8459 5.60043 52.8459 7.40774C52.8459 9.39313 54.0716 11.4432 57.1868 11.4432H63.0957V11.215ZM57.2904 4.49363H60.6261C61.7767 4.49363 62.0536 5.21018 62.0536 5.67001C62.0536 6.08183 61.8017 6.84634 60.6261 6.84634H54.135C54.2136 6.04634 54.8849 4.49363 57.2904 4.49363ZM43.7203 10.9333C43.3767 11.4022 43.1409 11.5656 42.8404 11.5656C42.423 11.5656 42.2629 11.3402 41.9659 10.934C41.2424 9.94893 36.4292 3.37224 36.4292 3.37224H37.1742C37.977 3.37224 38.2073 3.65606 38.5412 4.12075C38.6866 4.32528 42.8723 10.2251 42.8723 10.2251C42.8723 10.2251 47.0525 4.33297 47.225 4.09018C47.5318 3.65401 47.7704 3.37224 48.5774 3.37224H49.2313C49.2313 3.37224 44.3061 10.1305 43.7203 10.9333ZM12.1572 11.4432C11.6529 11.4432 11.3363 11.1942 11.2376 10.6557L11.072 9.77921C10.8007 10.2843 9.78851 11.4432 7.60069 11.4432H5.08521C1.66121 11.4432 0.695648 9.12322 0.695648 7.40774C0.695648 5.47591 1.85599 3.37224 5.08521 3.37224H7.60069C10.0494 3.37224 11.4136 4.79901 11.7405 6.53745C12.0146 7.98928 12.6574 11.4432 12.6574 11.4432H12.1572ZM7.32382 4.49363H5.17356C2.75825 4.49363 1.936 6.03035 1.936 7.40774C1.936 8.79974 2.75825 10.3218 5.17356 10.3218H7.32382C9.84626 10.3218 10.5816 8.72043 10.5816 7.40774C10.5816 6.23695 9.92487 4.49363 7.32382 4.49363ZM50.8459 2.44705C51.2035 2.44705 51.4803 2.22581 51.4803 1.80494V1.53919C51.4803 1.11415 51.2 0.897121 50.8459 0.897121C50.4939 0.897121 50.2101 1.11067 50.2101 1.53919V1.80494C50.2101 2.22859 50.487 2.44705 50.8459 2.44705ZM50.2247 3.37156H50.5203C51.0963 3.37156 51.4657 3.63035 51.4657 4.41296V11.4432H51.1569C50.5252 11.4432 50.2247 11.1016 50.2247 10.4227V3.37156ZM14.5503 4.4206C15.0845 3.91486 16.0306 3.37224 17.5311 3.37224H20.0459C23.4692 3.37224 24.4369 5.69226 24.4369 7.40774C24.4369 9.33887 23.2758 11.4432 20.0459 11.4432H17.5311C15.0803 11.4432 13.3099 9.85989 13.3099 7.40842V0.664062H13.6939C14.2421 0.664062 14.5503 0.94512 14.5503 1.4606V4.4206ZM17.8087 10.3218H19.9576C22.3736 10.3218 23.1958 8.78443 23.1958 7.40774C23.1958 6.01574 22.3736 4.49363 19.9576 4.49363H17.8087C15.2849 4.49363 14.5503 6.09365 14.5503 7.40774C14.5503 8.57852 15.2056 10.3218 17.8087 10.3218ZM26.9329 4.4206C27.4685 3.91486 28.4118 3.37224 29.913 3.37224H32.4292C35.8518 3.37224 36.8202 5.69226 36.8202 7.40774C36.8202 9.33887 35.6577 11.4432 32.4292 11.4432H29.913C27.4636 11.4432 25.6925 9.85989 25.6925 7.40842V0.664062H26.0765C26.624 0.664062 26.9329 0.94512 26.9329 1.4606V4.4206ZM30.1899 10.3218H32.3409C34.7548 10.3218 35.5777 8.78443 35.5777 7.40774C35.5777 6.01574 34.7562 4.49363 32.3409 4.49363H30.1899C27.6675 4.49363 26.9329 6.09365 26.9329 7.40774C26.9329 8.57852 27.5889 10.3218 30.1899 10.3218Z" fill="#00003A"/>
</svg>
