<svg xmlns="http://www.w3.org/2000/svg" xmlns:xlink="http://www.w3.org/1999/xlink" viewBox="0 0 166.9 53" style="enable-background:new 0 0 166.9 53" xml:space="preserve"><defs><path id="a" d="M1.3 1.3h164.4v50.5H1.3z"/></defs><clipPath id="b"><use xlink:href="#a" style="overflow:visible"/></clipPath><path d="M9.9 15.5v-12c0-.3 0-.4.5-.4.6 0 2-.1 2.7-.1 3.7 0 6 2.2 6 6.3 0 4.6-2.8 6.2-7.5 6.2H9.9zm4.5 15c-3.9 0-4.6-.7-4.6-6.1v-7.9h1.8c5.3 0 10 1.3 10 6.9.1 4.5-2.6 7.1-7.2 7.1m49.9-12v.5c0 .3 0 .4.3.4 4.5.1 4.5.6 4.5 4.1v2.8c0 3-1.9 4.8-5.8 4.8-6.5 0-9.3-6.3-9.3-14.2 0-7.5 2-14.6 9.2-14.6 4.1 0 7.5 2.8 7.8 7.8 0 .3.2.3.4.3h.4c0-2-.1-6.8-.1-8.9h-.3c-.3 0-.4 0-.5.2L70.5 4c-2.1-1.9-5-2.7-7.8-2.7-8.5 0-14.1 7.2-14.1 15.9 0 1.4.1 2.8.4 4.1v1.1c-.5 6.7-4.4 8.7-8.5 8.7-6.5 0-9.6-6-9.6-14.2 0-7.4 1.8-14.6 9-14.6 3.6 0 6.8 2.3 7.5 6.1 0 .3.2.3.4.3h.4c0-2-.1-5.2-.1-7.3h-.3c-.3 0-.4 0-.5.2l-.4 2.1c-2-1.8-4.8-2.7-7.5-2.7-8.3 0-13.8 7.2-13.8 15.9 0 .8.1 1.6.2 2.3h-.1c-1.7-2.4-5-3.6-9-3.7v-.1c4.3-.9 7.3-3.1 7.3-6.8 0-5.6-6.1-7-10.9-7-1.4.3-4.4.4-5.3.4-2.1 0-4.5 0-6.5-.1v.5c0 .3 0 .4.3.4 3.5.1 3.5.6 3.5 6.1v15.9c0 5.5 0 6-3.5 6.1-.3 0-.4.1-.4.4v.5c2.1 0 4-.1 6.1-.1 2.6 0 3.8.1 7.2.1 7.3 0 11.8-3.5 12.1-7.9h.1c2.2 5.2 7.1 8.5 13.5 8.5 3 0 5.8-1 8.1-2.8l.4 2.3c0 .2.2.2.5.2h.3c0-1.4 0-5.4.1-8.3h.1C52 29.1 57 32.3 63 32.3c5.8 0 8-3.6 10.5-3.6.2 0 .3-.1.3-.4 0-.4-.1-1.7-.1-2.5v-2c0-3.7 0-4.2 2.5-4.3.3 0 .3-.1.3-.4v-.5c-2.1 0-3.4.1-5.5.1-2.1-.1-4.7-.1-6.7-.2" style="clip-path:url(#b);fill:#177b57"/><g><defs><path id="c" d="M1.3 1.3h164.4v50.5H1.3z"/></defs><clipPath id="d"><use xlink:href="#c" style="overflow:visible"/></clipPath><path d="M32.5 51.6v-.3c0-.1 0-.1-.1-.1-.9-.2-.9-.2-.9-1.6v-5.3c0-.1 0-.1.1-.1h.8c1 0 1.5.1 1.7 1.4 0 .1 0 .1.1.1h.3v-2.1h-7v2.3h.3c.1 0 .1 0 .1-.1.2-1.5.7-1.6 1.7-1.6h.8c.1 0 .1 0 .1.1v5.3c0 1.5 0 1.5-.9 1.6-.1 0-.1 0-.1.1v.3h3M53 49.3c0-1.4-1.2-2-2.5-2 1-.2 1.8-.8 1.8-1.8 0-1.5-1.6-1.9-2.9-1.9h-2.7v.3c0 .1 0 .1.1.1.9.2.9.2.9 1.6v3.9c0 1.5 0 1.5-.9 1.6-.1 0-.1 0-.1.1v.3h3.2c1.9.1 3.1-.9 3.1-2.2m-1.2 0c0 1.2-.7 1.7-2.1 1.7-1.1 0-1.1-.1-1.1-1.6v-1.9h.5c1.7.1 2.7.6 2.7 1.8m-.7-3.7c0 1.2-.7 1.6-2 1.6h-.5v-2.9c0-.1 0-.1.1-.1h.8c1-.1 1.6.3 1.6 1.4m37.3 6.1v-2.6h-.3c-.1 0-.1 0-.1.1-.2 1.5-1 2.1-2.2 2.1-1.7 0-2.5-1.4-2.5-3.7 0-1.7.4-3.6 2.3-3.6 1.1 0 1.7.7 2 1.9 0 .1 0 .1.1.1h.3v-2.4h-.2c-.1 0-.1 0-.2.1l-.2.3c-.4-.3-1.1-.4-1.8-.4-2.2 0-3.5 1.8-3.5 4.1 0 2.8 1.5 4.2 3.7 4.2 1.1 0 1.8-.3 2.1-.4l.2.3c0 .1.1.1.2.1h.1zm-50.3-.1h-1.2v-.3s0-.1.1-.1c.7-.1.7-.1.7-1.1V49h-2.5v1.1c0 1 0 1 .7 1.1.1 0 .1 0 .1.1v.3h-2.4v-.3s0-.1.1-.1c.7-.1.7-.1.7-1.1v-2.6c0-1 0-1-.7-1.1-.1 0-.1 0-.1-.1V46H36v.3s0 .1-.1.1c-.7.1-.7.1-.7 1.1v.9h2.5v-.9c0-1 0-1-.7-1.1-.1 0-.1 0-.1-.1V46h2.4v.3s0 .1-.1.1c-.7.1-.7.1-.7 1.1v2.6c0 1 0 1 .7 1.1.1 0 .1 0 .1.1v.3h-1.2m4.6 0h-2.9v-.3s0-.1.1-.1c.7-.1.7-.1.7-1.1v-2.6c0-1 0-1-.7-1.1-.1 0-.1 0-.1-.1V46h4v1.5H43.5c-.1-.9-.5-1-1.1-1h-.8c-.1 0-.1 0-.1.1v1.9h.1c.7 0 .9-.1.9-.7 0-.1 0-.1.1-.1h.3v1.9h-.4c-.1-.7-.3-.8-.9-.8h-.1V50c0 1 0 1.1.7 1.1h.5c.7 0 1-.2 1.1-1.1 0 0 0-.1.1-.1h.3v1.6c-.3.1-.8.1-1.5.1m13.5.1c-1.5 0-2.7-1.1-2.7-2.8 0-2 1.2-3 2.7-3 1.5 0 2.7 1.1 2.7 2.8-.1 2.1-1.3 3-2.7 3m-.1-5.3c-1 0-1.5.8-1.5 2.5s.7 2.4 1.7 2.4 1.5-.8 1.5-2.5-.7-2.4-1.7-2.4m3.6 5-.1.2h-.2v-1.8h.3s.1 0 .1.1c.2.9.6 1.3 1.4 1.3.7 0 1.1-.3 1.1-.8 0-1.5-2.8-1-2.8-2.9 0-.9.7-1.6 1.7-1.6.4 0 .8.1 1.1.4l.1-.2c0-.1 0-.1.1-.1h.2v1.6h-.3s-.1 0-.1-.1c-.2-.7-.5-1.3-1.2-1.3-.6 0-.9.4-.9.7 0 1.5 2.9 1 2.9 2.9 0 1.2-1 1.7-1.9 1.7-.8.2-1.2.1-1.5-.1m5.8.2h-1.2v-.3s0-.1.1-.1c.7-.1.7-.1.7-1.1v-3.5c0-.1 0-.1-.1-.1h-.5c-.7 0-1 .1-1.2 1.1 0 .1 0 .1-.1.1H63v-1.6h5.1v1.6h-.2c-.1 0-.1 0-.1-.1-.1-1.1-.5-1.1-1.2-1.1h-.4c-.1 0-.1 0-.1.1v3.5c0 1 0 1 .7 1.1.1 0 .1 0 .1.1v.3h-1.4m5.3.1c-1.5 0-2.7-1.1-2.7-2.8 0-2 1.2-3 2.6-3 1.5 0 2.7 1.1 2.7 2.8.1 2.1-1.2 3-2.6 3m-.1-5.3c-1 0-1.5.8-1.5 2.5s.7 2.4 1.7 2.4 1.5-.8 1.5-2.5-.7-2.4-1.7-2.4m7.6 5.3c-.1-.3-.4-.6-.6-.9l-2.6-3.7v2.2c0 1.7 0 1.9 1 1.9.1 0 .1 0 .1.1v.3h-2.3v-.3s0-.1.1-.1c.7-.1.7-.3.7-1.9v-1.7c0-1 0-1-.7-1.1-.1 0-.1 0-.1-.1v-.3h1.8l2.8 4v-1.7c0-1.7 0-1.8-1-1.9v-.4H79.9v.3s0 .1-.1.1c-.7.1-.7.3-.7 1.9v3.4h-.8zm13.3 0c-1.5 0-2.7-1.1-2.7-2.8 0-2 1.2-3 2.6-3 1.5 0 2.7 1.1 2.7 2.8.1 2.1-1.1 3-2.6 3m0-5.3c-1 0-1.5.8-1.5 2.5s.7 2.4 1.7 2.4 1.5-.8 1.5-2.5c-.1-1.7-.7-2.4-1.7-2.4m7.5 5.3-.6-.9-2.6-3.7v2.2c0 1.7 0 1.9 1 1.9 0 0 .1 0 .1.1v.3h-2.3v-.3s0-.1.1-.1c.7-.1.7-.3.7-1.9v-1.7c0-1 0-1-.7-1.1-.1 0-.1 0-.1-.1v-.3h1.9l2.8 4v-1.7c0-1.7 0-1.8-1-1.9-.1 0-.1 0-.1-.1v-.3h2.3v.3s0 .1-.1.1c-.7.1-.7.3-.7 1.9v3.4h-.7zm2.4-.3-.1.2h-.2v-1.8h.3s.1 0 .1.1c.2.9.6 1.3 1.4 1.3.7 0 1.1-.3 1.1-.8 0-1.5-2.8-1-2.8-2.9 0-.9.7-1.6 1.7-1.6.4 0 .8.1 1.1.3l.1-.2.1-.1h.2v1.6h-.5s-.1 0-.1-.1c-.1-.6-.5-1.1-1.2-1.1-.6 0-.9.4-.9.7 0 1.5 2.9 1 2.9 2.9 0 1.2-1 1.7-1.9 1.7-.7.1-1 0-1.3-.2m6.4.3c-1.6 0-2.3-.7-2.3-2.1v-2.1c0-1 0-1-.7-1.1-.1 0-.1 0-.1-.1V46h2.4v.3s0 .1-.1.1c-.7.1-.7.1-.7 1.1v2.2c0 .8.4 1.3 1.4 1.3.9 0 1.4-.5 1.4-1.4v-1.3c0-1.7 0-1.8-1-1.9V46h2.2v.3s0 .1-.1.1c-.6.1-.6.2-.6 1.9v1.2c.3 1.6-.4 2.2-1.8 2.2m6.2-.1H111v-.3s0-.1.1-.1c.7-.1.7-.1.7-1.1v-2.6c0-1 0-1-.7-1.1-.1 0-.1 0-.1-.1V46H113.6v.3s0 .1-.1.1c-.8.1-.8.1-.8 1.1V50c0 1 0 1.1.7 1.1h.4c.7 0 1-.2 1.1-1.3 0-.1 0-.1.1-.1h.3v1.8c-.3.1-.6.1-1.2.1m3.3 0h-1.2v-.3s0-.1.1-.1c.7-.1.7-.1.7-1.1v-3.5c0-.1 0-.1-.1-.1h-.5c-.7 0-1 .1-1.2 1.1 0 .1 0 .1-.1.1h-.2v-1.6h5.1v1.6h-.2s-.1 0-.1-.1c-.1-1.1-.5-1.1-1.2-1.1h-.5c-.1 0-.1 0-.1.1v3.5c0 1 0 1 .7 1.1.1 0 .1 0 .1.1v.3h-1.3m4 0h-1.2v-.3s0-.1.1-.1c.7-.1.7-.1.7-1.1v-2.6c0-1 0-1-.7-1.1-.1 0-.1 0-.1-.1V46h2.4v.3s0 .1-.1.1c-.7.1-.7.1-.7 1.1v2.6c0 1 0 1 .7 1.1.1 0 .1 0 .1.1v.3h-1.2m6.2.1c-.1-.3-.4-.6-.6-.9l-2.6-3.7v2.2c0 1.7 0 1.9 1 1.9 0 0 .1 0 .1.1v.3h-2.3v-.3s0-.1.1-.1c.7-.1.7-.3.7-1.9v-1.7c0-1 0-1-.7-1.1-.1 0-.1 0-.1-.1v-.3h1.9l2.8 4v-1.7c0-1.7 0-1.8-1-1.9-.1 0-.1 0-.1-.1v-.3h2.3v.3s0 .1-.1.1c-.7.1-.7.3-.7 1.9v3.4h-.7zm6.9-2.3c0 .1 0 .1 0 0-.6.2-.6.2-.6.9v.8c0 .1 0 .1-.1.1-.5 0-.8.6-2 .6-1.5 0-2.6-1-2.6-2.9 0-1.6.9-2.9 2.6-2.9.5 0 1 .1 1.3.3l.2-.2.1-.1h.2v1.7h-.3s-.1 0-.1-.1c-.2-.8-.6-1.2-1.4-1.2-1.3 0-1.6 1.3-1.6 2.4 0 1.2.3 2.5 1.6 2.5.7 0 1-.3 1-.9v-.2c0-.6 0-.6-.9-.7 0 0-.1 0-.1-.1v-.3H134.2v.3zm9.3-1c0 .1 0 .1-.1.1-.7.2-.7.2-.7 1.2v1c0 .1 0 .1-.1.1-.7 0-1 1-2.7 1-2.1 0-3.6-1.4-3.6-4.2 0-2.3 1.2-4.1 3.6-4.1.8 0 1.4.2 1.8.4l.2-.3c0-.1.1-.1.2-.1h.2v2.3h-.3c-.1 0-.1 0-.1-.1-.3-1.2-.9-1.7-2-1.7-1.9 0-2.3 1.9-2.3 3.6 0 1.8.5 3.7 2.5 3.7 1 0 1.6-.5 1.6-1.3v-.3c0-.9 0-1-1.2-1.1-.1 0-.1 0-.1-.1V48h3.1v.4zm3.2.3c1.7.3 1.1 2.4 1.8 2.4.2 0 .3-.1.4-.2l.2.2c-.2.3-.6.5-.9.5-.8 0-1-.7-1.2-1.5-.2-.8-.3-1.2-1.1-1.2h-.6v1.2c0 1 0 1 .7 1.1.1 0 .1 0 .1.1v.3h-2.5v-.3s0-.1.1-.1c.7-.1.7-.1.7-1.1v-2.6c0-1 0-1-.7-1.1-.1 0-.1 0-.1-.1V46h2.4c1.1 0 2.1.3 2.1 1.3.1.6-.2 1.2-1.4 1.4m-.6-2.2c-.3 0-.8 0-.8.1v1.9h.5c.8 0 1.3-.3 1.3-1.1.1-.6-.4-.9-1-.9m5.7 5.2c-1.5 0-2.7-1.1-2.7-2.8 0-2 1.2-3 2.7-3 1.5 0 2.7 1.1 2.7 2.8-.1 2.1-1.3 3-2.7 3m-.1-5.3c-1 0-1.5.8-1.5 2.5s.7 2.4 1.7 2.4 1.5-.8 1.5-2.5c-.1-1.7-.7-2.4-1.7-2.4m6 5.3c-1.6 0-2.3-.7-2.3-2.1v-2.1c0-1 0-1-.7-1.1-.1 0-.1 0-.1-.1V46h2.4v.3s0 .1-.1.1c-.7.1-.7.1-.7 1.1v2.2c0 .8.4 1.3 1.4 1.3.9 0 1.4-.5 1.4-1.4v-1.3c0-1.7 0-1.8-1-1.9V46h2.2v.3s0 .1-.1.1c-.6.1-.6.2-.6 1.9v1.2c.3 1.6-.4 2.2-1.8 2.2m5.2-2.4h-.4v.8c0 1 0 1 .8 1.1.1 0 .1 0 .1.1v.3H161.1v-.3s0-.1.1-.1c.7-.1.7-.1.7-1.1v-2.6c0-1 0-1-.7-1.1-.1 0-.1 0-.1-.1V46h2.3c1 0 2.3.3 2.3 1.5 0 .8-.4 1.8-2.5 1.8m.3-2.8c-.3 0-.7 0-.7.1v2.3h.4c.9 0 1.4-.4 1.4-1.3 0-.8-.5-1.1-1.1-1.1" style="clip-path:url(#d);fill:#177b57"/></g></svg>