<?xml version="1.0" encoding="utf-8"?>
<!DOCTYPE svg PUBLIC "-//W3C//DTD SVG 1.1//EN" "http://www.w3.org/Graphics/SVG/1.1/DTD/svg11.dtd">
<svg version="1.1" xmlns="http://www.w3.org/2000/svg" width="290px" height="210px">
<path fill="#233975" d="M286.791,69.168c-0.938,3.533-4.379,10.388-9.258,16.248c-4.566,5.489-9.047,9.782-15.293,9.967
	c-3.371,0.1-6.172-1.714-7.758-5.239c-1.801-4.001-1.531-10.148,0.563-18.31c2.816-10.952,3.438-11.646-0.457-15.737
	c-0.297-0.314-0.758-0.799-1.27-1.349c-6.234,13.214-14.027,25.818-22.352,35.46c-7.172,8.309-17.432,17.89-28.67,17.89
	c-5.219,0-9.986-2.304-12.715-6.893c-4.297,5.6-11.635,12.508-19.121,14.022c-3.578,0.723-7.377,0.045-10.992-1.102
	c-3.245-1.021-6.796-1.404-9.941-0.711c-6.48,1.426-12.816,7.096-14.242,9.002c-1.439,1.914-5.511-1.035-4.575-4.57
	c1.763-6.668,15.623-19.528,24.197-26.291c6.776-5.36,15.604-14.289,18.554-17.91c-7.395,2.297-22.827,6.371-30.681,0.881
	c-2.378,5.676-5.037,12.958-8.625,20.202c-8.265,16.694-19.08,33.797-27.546,34.213c-4.516,0.225-6.812-5.717-6.666-13.477
	c0.006-0.49-0.477-0.393-0.668-0.098c-7.027,10.775-14.483,19.695-20.72,19.248c-7.887-0.582-9.04-15.938-3.409-30.061
	c8.282-20.778,23.269-29.1,30.227-29.24c5.145-0.108,7.859,3.57,8.954,5.904l-5.382,4.193c-0.715-1.003-1.953-2.478-4.145-2.478
	c-3.184,0-8.994,3.709-13.671,11.381c-3.19,5.237-6.238,12.479-6.332,18.003c-0.139,7.715,4.836,5.963,7.844,2.824
	c4.375-4.559,10.407-14.69,14.921-26.256c2.524-0.572,7.145-1.524,9.906-2.145c-3.428,9.812-4.879,17.861-4.947,22.338
	c-0.104,6.098,2.885,6.953,7.043,1.334c5.066-6.841,12.924-22.012,17.668-38.633c0.342-1.197,0.476-2.897,0.045-4.401
	c-0.378-1.326,0.558-1.656,1.782-1.272c1.465,0.46,2.799,1.605,3.619,2.992c7.898,2.084,25.829-4.743,36.306-8.313
	c2.133-0.727,3.045-0.59,3.814,0.573c0.416,0.629,1.807,3.235,2.092,4.855c0.236,1.318-0.078,2.271-1.047,3.907
	c-5.621,9.524-25.135,26.003-29.512,32.386c4.712-1.048,9.129-0.049,13.426,1.194c3.104,0.892,5.563,2,9.801,1.281
	c3.566-0.602,7.219-3.312,10.426-7.505c-1.348-4.694-1.051-10.937,1.816-18.729c4.307-11.743,12.449-20.995,21.555-25.481
	c12.201-6.009,21.822-1.497,20.549,9.395c-1.359,11.561-14.002,19.074-25.439,20.723l-0.57-4.165
	c7.477-2.886,11.449-7.512,13.004-12.537c1.457-4.7-1.098-9.798-8.051-3.878c-7.023,5.978-10.625,16.56-10.711,24.033
	c-0.072,6.375,3.482,11.106,10.023,10.433c5.723-0.591,12.627-5.027,17.393-10.033c11.199-11.767,20.387-31.314,23.043-41.17
	c0.406-1.498,0.98-4.26,1.242-6.116c0.082-0.582,0.203-0.75,0.715-0.574c2.816,0.983,3.695,3.196,3.688,5.648
	c2.02,1.957,4.848,3.958,7.184,5.854c2.82,2.289,4.051,4.681,3.551,9.62c-0.461,4.542-1.645,12.16-1.141,16.935
	c0.723,6.799,5.988,5.48,10.215,1.446c3.867-3.694,7.375-9.891,8.695-13.854C285.01,64.239,287.248,67.455,286.791,69.168z
	 M6.674,61.732c-0.787-1.099-1.858-3.429-2.141-4.406c5.002-8.441,14.624-17.464,26.13-23.344
	c11.813-6.04,27.599-10.448,49.168-12.688c12.637-1.307,25.175-2.859,36.641-6.385c8.512-2.615,17.229-7.666,20.754-12.854
	c0.514-0.76,1.258-0.583,1.094,0.43c-1.763,10.953-8.903,22.197-22.86,28.674c-9.047,4.195-21.411,6.499-38.199,7.427
	c-18.077,1.001-34.22,1.124-47.381,5.531C20.573,47.238,12.104,52.659,6.674,61.732z M67.782,97.833
	c-5.296,1.026-22.542,10.255-33.33,28.642c-2.104,17.207-4.065,32.201-6.679,44.707c-4.382,20.957-10.864,30.871-14.481,34.484
	c-4.38,4.379-7.989,3.223-9.189-1.336c-3.763-14.289,4.048-41.719,15.479-68.203c6.001-27.059,12.955-59.25,18.177-75.351
	c2.702-8.326,6.798-12.153,9.447-11.521c3.999,0.95,1.716,10.475-2.476,16.383c-2.601,11.046-5.893,28.189-7.867,41.74
	c8.488-7.472,22.096-14.425,29.396-16.404C75.162,88.564,73.086,96.807,67.782,97.833z"/>
</svg>
