<svg width="57" height="19" viewBox="0 0 57 19" fill="none" xmlns="http://www.w3.org/2000/svg">
<path d="M12.9469 10.1372C13.1401 10.0392 13.3527 9.92148 13.5459 9.82342C13.6232 9.7842 13.8937 9.68614 13.9324 9.60769C13.9517 9.56846 13.9324 9.45079 13.9324 9.39196V8.92127V5.56762V2.29242V1.86096C13.9324 1.84135 13.9517 1.70406 13.9324 1.68445C13.913 1.66484 13.7585 1.68445 13.7391 1.68445H13.314C13.1594 1.68445 13.1787 1.70406 13.0821 1.82173C12.715 2.31203 12.3478 2.80233 11.9807 3.31224C11.8068 3.54759 11.6329 3.76332 11.4783 3.99866C11.3623 4.15556 11.3623 4.17517 11.1498 4.17517L11.2077 2.88078C11.2271 2.56699 11.2271 2.2532 11.2464 1.93941C11.2464 1.82173 11.2657 1.70406 11.2657 1.58639C11.2657 1.54717 11.2464 1.4295 11.2657 1.40988C11.3043 1.35105 11.6522 1.39027 11.7488 1.39027H18.9758C19.0145 1.39027 19.1884 1.37066 19.2271 1.39027C19.2657 1.40988 19.2464 1.52755 19.2464 1.58639C19.2657 1.84135 19.2657 2.11591 19.285 2.37087C19.3043 2.93962 19.3237 3.48875 19.3623 4.0575V4.17517C19.2657 4.17517 19.1884 4.19478 19.1111 4.13595C19.0338 4.07711 18.9758 3.95944 18.9179 3.88099C18.686 3.5672 18.4541 3.2338 18.2029 2.92001L17.5072 1.97863C17.4686 1.91979 17.4106 1.78251 17.3333 1.74329C17.2754 1.70406 17.1594 1.72367 17.0821 1.72367H16.7729C16.7343 1.72367 16.5797 1.70406 16.5411 1.72367C16.5217 1.74329 16.5411 1.74329 16.5217 1.78251C16.4831 1.93941 16.5217 2.13553 16.5217 2.29242V9.11739C16.5217 9.25467 16.4831 9.45079 16.5217 9.58808C16.5604 9.72536 16.8696 9.82342 17.0048 9.88226C17.1401 9.9607 17.372 10.0195 17.4879 10.1372C17.5266 10.1764 17.5652 10.3726 17.5266 10.4314C17.5072 10.451 17.4106 10.4314 17.3913 10.4314H13.1401C13.1014 10.4314 12.9662 10.451 12.9469 10.4314C12.9275 10.3529 12.9469 10.196 12.9469 10.1372ZM20.1159 9.7842V6.92085V2.23359V1.46872C20.1159 1.35105 20.1546 1.17454 20.1159 1.05687C20.0773 0.919584 19.8454 0.899972 19.7101 0.841136C19.6329 0.821524 19.3816 0.762688 19.343 0.68424V0.527344H19.401C19.4783 0.48812 19.6329 0.48812 19.7295 0.468508C19.9034 0.429284 20.0773 0.409672 20.2319 0.370448C20.6184 0.292001 21.0242 0.213553 21.4106 0.154717C21.6425 0.115493 21.8744 0.0566568 22.1063 0.0174329C22.1643 0.0174329 22.3961 -0.0217911 22.4155 0.0174329C22.4348 0.0370448 22.4155 0.115493 22.4155 0.135105V4.19478C23.1498 3.44953 24.4251 3.03768 25.4493 3.29263C26.3382 3.50836 26.628 4.35168 26.628 5.21461C26.6473 6.31288 26.628 7.39154 26.628 8.48981V9.37234C26.628 9.4704 26.5894 9.70575 26.628 9.80381C26.6473 9.84303 26.7246 9.86264 26.7633 9.90187C26.8986 9.98032 27.0531 10.0588 27.1884 10.1372C27.2077 10.1568 27.2657 10.1764 27.2657 10.196C27.285 10.2157 27.285 10.3922 27.2657 10.4118C27.2464 10.451 27.2464 10.4314 27.1884 10.4314C26.9758 10.4706 26.744 10.4314 26.5507 10.4314H23.7681C23.7488 10.4314 23.6522 10.451 23.6329 10.4314C23.6135 10.4118 23.6135 10.196 23.6329 10.1764C23.6908 10.098 23.9227 10.0195 24 9.9607C24.058 9.92148 24.2319 9.86264 24.2705 9.80381C24.3092 9.74497 24.2705 9.52924 24.2705 9.4704V8.66631C24.2705 7.52882 24.2899 6.37171 24.2705 5.23422C24.2705 4.90082 24.2126 4.50858 23.8841 4.33207C23.7101 4.23401 23.4783 4.2144 23.285 4.2144C23.1304 4.2144 22.9758 4.25362 22.8406 4.29284C22.7246 4.33207 22.5121 4.41052 22.4348 4.50858C22.3768 4.58702 22.4155 4.7047 22.4155 4.80275V9.43118C22.4155 9.52924 22.3768 9.72536 22.4155 9.80381C22.4348 9.84303 22.5121 9.88226 22.57 9.90187C22.7053 9.98032 22.8792 10.0588 23.0145 10.1372C23.0338 10.1568 23.0725 10.1568 23.0725 10.1764C23.0918 10.196 23.0918 10.3726 23.0725 10.3922C23.0531 10.4118 23.0338 10.4118 22.9952 10.4118C22.7826 10.4314 22.5507 10.4118 22.3382 10.4118H19.5556C19.5362 10.4118 19.4396 10.4314 19.4203 10.4118C19.401 10.3922 19.4203 10.196 19.4396 10.1568C19.4976 10.0784 19.7101 9.99993 19.7874 9.9607C19.9227 9.90187 20.0193 9.84303 20.1159 9.7842ZM29.2947 7.07774C29.3333 7.94067 29.6039 8.90166 30.3768 9.37234C30.7826 9.60769 31.285 9.68614 31.7488 9.64691C32.3092 9.58808 32.7729 9.31351 33.256 9.05855C33.256 9.137 33.2754 9.27429 33.256 9.35273C33.2174 9.43118 33.1208 9.52924 33.0628 9.58808C32.9855 9.66652 32.8889 9.76458 32.7923 9.84303C32.4638 10.1176 32.0966 10.3137 31.7101 10.451C30.9758 10.706 30.1256 10.6863 29.372 10.4902C28.7729 10.3333 28.2319 10.0392 27.8261 9.56846C27.4203 9.09778 27.1884 8.48981 27.0918 7.86222C26.8792 6.509 27.1304 4.95965 28.2319 4.0575C29.1981 3.27302 30.744 3.11613 31.8841 3.58681C33.2754 4.15556 33.5072 5.76374 33.5072 7.09736H29.8164C29.6425 7.07774 29.4686 7.07774 29.2947 7.07774ZM29.256 6.74434C29.6425 6.72473 30.029 6.70512 30.4348 6.66589C30.6667 6.64628 30.9179 6.64628 31.1498 6.62667C31.1884 6.62667 31.285 6.62667 31.3237 6.60706C31.3816 6.56783 31.343 6.17559 31.343 6.09715C31.3237 5.39111 31.3044 4.52819 30.8986 3.92022C30.6087 3.48875 30.1643 3.5672 29.8937 3.95944C29.3333 4.72431 29.256 5.8618 29.256 6.74434ZM0 13.9027C0 12.8044 0.21256 11.6669 0.811594 10.7452C1.3913 9.84303 2.31884 9.25467 3.32367 8.96049C4.54106 8.60748 5.89372 8.6467 7.14976 8.88205C7.42029 8.94088 7.69082 8.99972 7.94203 9.07817C7.98068 9.09778 8.15459 9.137 8.17391 9.17622V9.23506C8.23188 9.4704 8.19324 9.76458 8.19324 9.99993C8.21256 10.6079 8.21256 11.2355 8.23188 11.8435C8.15459 11.8435 8.01932 11.8631 7.96135 11.8435C7.92271 11.8238 7.88406 11.7258 7.86473 11.6866C7.71014 11.4512 7.55556 11.2159 7.42029 10.9609C7.09179 10.4314 6.74396 9.90187 6.41546 9.37234C6.24155 9.07817 5.75845 9.07817 5.44928 9.07817C5.10145 9.07817 4.75362 9.137 4.46377 9.31351C3.80676 9.72536 3.49758 10.5295 3.32367 11.2551C3.05314 12.4122 3.07246 13.6281 3.13043 14.8049C3.18841 15.707 3.2657 16.668 3.61353 17.4917C3.82609 18.0016 4.19324 18.4527 4.75362 18.5704C4.92754 18.6096 5.10145 18.6096 5.29469 18.59C5.41063 18.5704 5.81643 18.5508 5.8744 18.4331C5.89372 18.3939 5.8744 18.2958 5.8744 18.2566V17.9232V15.8443V15.0402C5.8744 14.9029 5.91304 14.8441 5.7971 14.7656C5.66184 14.6872 5.50725 14.6087 5.37198 14.5107C5.27536 14.4518 5.08213 14.393 5.02415 14.3146C4.98551 14.2753 4.96618 14.0596 5.00483 14.0204C5.02415 13.9812 5.02416 14.0008 5.08213 14.0008C5.25604 13.9615 5.48792 14.0008 5.66184 14.0008H8.65701C8.85024 14.0008 9.0628 13.9812 9.25604 14.0008H9.33333C9.35266 14.0204 9.35266 14.295 9.33333 14.3342C9.29469 14.393 9.10145 14.4715 9.02415 14.5107C8.88889 14.5891 8.7343 14.6676 8.59903 14.7656C8.44444 14.8441 8.46377 14.8441 8.46377 15.0206V18.2173C8.46377 18.2566 8.48309 18.3546 8.46377 18.3939C8.42512 18.4919 8.01932 18.5508 7.90338 18.59C7.57488 18.688 7.22705 18.7665 6.87923 18.8253C6.2029 18.943 5.52657 18.9822 4.85024 18.9626C3.76812 18.9234 2.62802 18.688 1.73913 18.0212C0.966184 17.4525 0.463768 16.5896 0.231884 15.6482C0.057971 15.099 0 14.4911 0 13.9027ZM8.90821 12.118C8.90821 12.0788 8.88889 11.9219 8.90821 11.9023C8.92754 11.8827 8.94686 11.9023 8.96618 11.8827C9.08213 11.8238 9.23672 11.8238 9.37198 11.8042C9.81643 11.7258 10.2609 11.6473 10.7246 11.5689C11.0725 11.5101 11.4203 11.4316 11.7488 11.3924C11.8454 11.3728 11.9614 11.3728 12.058 11.412C12.1546 11.4316 12.1159 11.412 12.1353 11.4904C12.1739 11.7258 12.1353 12.0003 12.1353 12.2357V16.3346C12.1353 16.8249 12 17.727 12.4638 18.0212C12.6957 18.1781 13.0242 18.1781 13.2947 18.1193C13.5072 18.0801 13.913 17.9232 13.9903 17.6878C14.0097 17.629 13.9903 17.5505 13.9903 17.4917V17.0799V14.3538V13.0986V12.6868C13.9903 12.6475 14.0097 12.5299 13.9903 12.4906C13.9324 12.4318 13.7391 12.373 13.6812 12.3534C13.5652 12.3141 13.4686 12.2553 13.3527 12.2161C13.314 12.1965 13.1787 12.1769 13.1594 12.1376C13.1401 12.118 13.1401 11.9415 13.1594 11.9219C13.1787 11.9023 13.1787 11.9219 13.1981 11.9023C13.2947 11.8435 13.4686 11.8631 13.5652 11.8435C14.3575 11.7062 15.1691 11.5297 15.9807 11.412C16.0773 11.3924 16.1739 11.3924 16.2705 11.412C16.3671 11.4316 16.3285 11.3924 16.3478 11.4904C16.3865 11.6866 16.3478 11.9611 16.3478 12.1769V17.8251C16.3478 17.8839 16.3285 17.982 16.3478 18.0605C16.3671 18.1193 16.3478 18.0997 16.4444 18.1389C16.6377 18.2173 16.8502 18.3154 17.0435 18.3939C17.1014 18.4135 17.1208 18.4135 17.1401 18.4527C17.1594 18.4919 17.1594 18.6292 17.1401 18.6292C17.1014 18.6684 16.9082 18.6488 16.8696 18.6684C16.4444 18.7273 16.0193 18.7665 15.5749 18.8253C15.1884 18.8645 14.8019 18.9234 14.4348 18.9626C14.3575 18.9822 14.2802 18.9822 14.2029 18.9626C14.1643 18.9626 14.0483 18.9626 14.029 18.943C14.0097 18.9038 14.029 18.7469 14.029 18.7076V18.3742C14.029 18.3154 14.0676 18.1585 14.029 18.0997C13.9903 18.0408 13.913 18.1193 13.8551 18.1585C13.7005 18.2958 13.5266 18.4331 13.3527 18.5311C12.715 18.9234 11.9227 19.0999 11.1884 18.943C10.6473 18.8253 10.1836 18.5115 9.95169 17.982C9.77778 17.6094 9.73913 17.1975 9.73913 16.8053V14.4715V13.1378V12.6868C9.73913 12.6475 9.75845 12.5299 9.73913 12.4906C9.70048 12.4318 9.4686 12.373 9.41063 12.3338C9.21739 12.2553 9.0628 12.1965 8.90821 12.118ZM27.1304 11.3728C27.1691 11.3728 27.343 11.3728 27.3623 11.412C27.3816 11.4316 27.3623 11.5689 27.3623 11.5885V13.3144C27.3623 13.3732 27.343 13.4712 27.3623 13.5301V13.5693C27.4396 13.6478 27.4589 13.3928 27.4783 13.3732C27.6522 12.6475 27.9807 11.8042 28.715 11.5101C28.8502 11.4512 28.9855 11.4316 29.1208 11.412C29.2367 11.412 29.5652 11.3728 29.6232 11.4708C29.6425 11.5101 29.6232 11.6081 29.6232 11.6473V13.6478C29.1594 13.5497 28.6377 13.5693 28.1932 13.6674C27.9807 13.7066 27.7874 13.7654 27.5942 13.8635C27.4976 13.9027 27.4783 13.8831 27.4589 13.9615C27.4396 14.04 27.4589 14.1773 27.4589 14.2557V18.0408C27.4589 18.0801 27.4396 18.1389 27.4589 18.1781C27.4976 18.237 27.6329 18.2762 27.6908 18.2958C27.7874 18.3546 27.9034 18.4135 28 18.4723C28.0387 18.4919 28.0966 18.5115 28.1159 18.5508C28.1353 18.5704 28.1353 18.8057 28.1159 18.8253C28.0966 18.8449 27.9807 18.8253 27.942 18.8253H24.7343C24.6377 18.8253 24.4638 18.8645 24.3865 18.8253H24.3285C24.3092 18.8057 24.3285 18.59 24.3285 18.5704C24.3672 18.4527 24.6184 18.3742 24.7343 18.3154C24.8116 18.2762 24.9662 18.2173 25.0048 18.1389C25.0242 18.0997 25.0048 17.982 25.0048 17.9428V17.5309V12.4906C25.0048 12.471 25.0242 12.373 25.0048 12.3534C24.9855 12.3338 24.8889 12.3141 24.8502 12.3141C24.7343 12.2749 24.6184 12.2357 24.5024 12.2161C24.3865 12.1769 24.0966 12.1572 24.1932 11.9611C24.2126 11.9023 24.2899 11.9219 24.3672 11.9023C25.2174 11.7454 26.0483 11.5885 26.8986 11.4316C26.9758 11.3924 27.0531 11.3924 27.1304 11.3728ZM34.4155 11.5493V9.98032V9.52924C34.4155 9.4704 34.4348 9.35273 34.4155 9.2939C34.3961 9.25467 34.3188 9.23506 34.2609 9.21545C34.1063 9.15661 33.9517 9.09778 33.7778 9.03894C33.6618 8.99972 33.6039 9.01933 33.6039 8.88205C33.6039 8.76437 33.5845 8.8036 33.6812 8.78399C33.8937 8.70554 34.1449 8.70554 34.3575 8.66631C34.9952 8.54864 35.6135 8.43097 36.2512 8.3133C36.3865 8.29369 36.5217 8.25446 36.657 8.27407C36.8116 8.29369 36.8309 8.25446 36.8309 8.39175C36.8502 8.70554 36.8309 9.03894 36.8309 9.35273V17.9428C36.8309 18.0212 36.8116 18.0212 36.8696 18.0605C36.9855 18.1389 37.1787 18.1781 37.2947 18.2173C37.372 18.237 37.5845 18.2762 37.6232 18.335C37.6425 18.3546 37.6425 18.5704 37.6232 18.59C37.6039 18.6096 37.4879 18.6096 37.4686 18.6096C37.1981 18.6488 36.9469 18.688 36.6763 18.7076C36.0773 18.7861 35.4783 18.8645 34.8599 18.943C34.7633 18.9626 34.5314 19.0018 34.4928 18.9234C34.4541 18.8449 34.4928 18.59 34.4928 18.5115C34.4928 18.4527 34.5314 18.1977 34.4928 18.1585C34.4541 18.1193 34.029 18.5115 33.971 18.5508C33.7391 18.7076 33.4879 18.8253 33.2174 18.9038C32.7923 19.0214 32.3092 19.0214 31.8841 18.9234C30.029 18.4919 29.6425 16.2561 29.7971 14.6284C29.8744 13.7654 30.1449 12.9025 30.7246 12.2749C31.2657 11.7062 32 11.412 32.7536 11.3532C33.3333 11.2943 33.8937 11.3335 34.4155 11.5493ZM34.4155 17.8055V12.9809V12.0788C34.4155 11.9611 34.3961 11.9415 34.2609 11.8631C33.9903 11.7062 33.6425 11.6473 33.3527 11.765C32.9082 11.9415 32.6957 12.471 32.5797 12.9025C32.3478 13.687 32.3285 14.5303 32.3478 15.354C32.3672 16.06 32.3865 16.923 32.7729 17.5505C33.1208 18.0997 33.913 18.237 34.4155 17.8055ZM40.8116 11.3728C40.9082 11.3924 41.0242 11.3532 41.0628 11.4512C41.0821 11.5101 41.0628 11.6473 41.0628 11.7062V17.8447C41.0628 17.9232 41.0435 18.0408 41.0628 18.1193C41.0821 18.1977 41.1594 18.2173 41.2367 18.2566C41.3527 18.3154 41.4493 18.3742 41.5652 18.4331C41.6039 18.4527 41.7198 18.4919 41.7391 18.5508C41.7391 18.5704 41.7585 18.8057 41.7391 18.8253H41.6812C41.5652 18.8449 41.4106 18.8253 41.2754 18.8253H38.3382C38.2609 18.8253 38.0483 18.8645 37.9903 18.8253C37.9517 18.8057 37.9324 18.5704 37.971 18.5311C38.0097 18.4723 38.1449 18.4331 38.2029 18.4135C38.3188 18.3546 38.4348 18.2762 38.5507 18.2173C38.6473 18.1585 38.628 18.1781 38.628 18.0997C38.6667 17.8055 38.628 17.4721 38.628 17.1779V15.6286V12.8044C38.628 12.726 38.6473 12.5887 38.628 12.5103C38.6087 12.4318 38.5121 12.4318 38.4348 12.3926C38.2995 12.3338 38.1836 12.2945 38.0483 12.2357C38.0097 12.2161 37.8551 12.1965 37.8164 12.1376C37.7971 12.118 37.7971 11.9219 37.8164 11.9023C37.8358 11.8827 37.8744 11.9023 37.8937 11.8827C38.0483 11.8238 38.2222 11.8238 38.3961 11.7846C38.6473 11.7454 38.8792 11.6866 39.1304 11.6473C39.6135 11.5689 40.0773 11.4708 40.5604 11.3924C40.657 11.412 40.7343 11.3924 40.8116 11.3728ZM41.0821 9.54885C41.0435 10.7256 39.4783 11.2355 38.7633 10.3137C38.4348 9.88226 38.4155 9.2939 38.7053 8.84282C38.9952 8.39175 39.5556 8.19563 40.0773 8.3133C40.657 8.43097 41.0821 8.94088 41.0821 9.54885ZM49.5459 18.1585V13.432V12.5299C49.5459 12.5103 49.5652 12.4122 49.5459 12.3926C49.5266 12.3534 49.4106 12.3338 49.372 12.3338L49.0242 12.2161C48.9662 12.1965 48.8116 12.1769 48.7729 12.118C48.7343 12.0788 48.7536 11.9807 48.7536 11.9219C48.7536 11.8042 48.7923 11.8238 48.9082 11.8042L50.1836 11.5689L51.4589 11.3335C51.5362 11.3139 51.5942 11.2943 51.6715 11.2943C51.7101 11.2943 51.9034 11.2943 51.942 11.3139C51.9614 11.3335 51.942 11.4512 51.942 11.4904V11.8631C51.942 11.9219 51.9034 12.0984 51.942 12.1572C51.9807 12.2357 52.058 12.1572 52.1159 12.0984C52.2899 11.9611 52.4638 11.8435 52.657 11.7454C53.3527 11.3532 54.1836 11.1766 54.9758 11.2943C55.5169 11.3728 55.9614 11.6669 56.1546 12.1965C56.2899 12.5691 56.3092 12.9613 56.3092 13.3536V17.8251C56.3092 17.9036 56.2899 18.0408 56.3092 18.1193C56.3285 18.1977 56.3865 18.2173 56.4831 18.2566C56.5797 18.3154 56.6957 18.3742 56.7923 18.4331C56.8309 18.4527 56.9662 18.4919 56.9855 18.5508C57.0048 18.59 57.0048 18.7861 56.9855 18.8057C56.9662 18.8449 57.0048 18.8057 56.9469 18.8253C56.8696 18.8645 56.6957 18.8253 56.599 18.8253H53.8358C53.7198 18.8253 53.2754 18.8842 53.2174 18.8057C53.1981 18.7861 53.1981 18.5704 53.2174 18.5311C53.2367 18.4919 53.3527 18.4527 53.3913 18.4331C53.5073 18.3742 53.6039 18.3154 53.7198 18.2566C53.7585 18.237 53.8744 18.1977 53.8937 18.1585C53.913 18.1193 53.8937 18.0408 53.8937 18.0016V17.5702V16.1973V13.5497C53.8937 13.2359 53.913 12.8829 53.7198 12.6083C53.5652 12.373 53.2947 12.3141 53.0242 12.2945C52.8116 12.2945 52.6184 12.3141 52.4251 12.373C52.3285 12.4122 52.0387 12.4907 51.9807 12.6083C51.9614 12.6475 51.9807 12.726 51.9807 12.7652V17.8447C51.9807 17.9036 51.9614 18.0408 51.9807 18.0997C52 18.1781 52.1159 18.1977 52.1739 18.237C52.2705 18.2958 52.3865 18.3546 52.4831 18.4135C52.5217 18.4331 52.599 18.4723 52.6184 18.4919C52.6377 18.5115 52.6377 18.7469 52.6184 18.7665C52.6184 18.7861 52.599 18.7665 52.5797 18.7665C52.5024 18.8057 52.3092 18.7665 52.2319 18.7665H48.9855C48.8889 18.7665 48.8696 18.7861 48.8502 18.7273C48.8309 18.688 48.8309 18.5115 48.8502 18.4723C48.8696 18.4331 48.9855 18.3939 49.0242 18.3742C49.2174 18.3546 49.372 18.2566 49.5459 18.1585ZM45.4493 14.5499C45.4493 14.04 45.4686 13.5105 45.43 12.9809C45.372 12.4122 45.2174 11.7846 44.5797 11.6669C44.3865 11.6277 44.0387 11.5689 43.9034 11.7258C43.7681 11.8631 43.6715 12.0592 43.5556 12.2161L42.57 13.5693C42.5121 13.6478 42.4541 13.8047 42.3768 13.8439C42.3575 13.8635 42.1643 13.8635 42.1643 13.8439C42.1449 13.8243 42.1643 13.687 42.1643 13.6478V12.0592C42.1643 12.0003 42.1449 11.9023 42.1643 11.8435C42.2029 11.7454 42.628 11.6866 42.7246 11.6473C43.2657 11.5101 43.8261 11.412 44.3865 11.3728C45.1787 11.3139 46.0676 11.3335 46.8019 11.6866C47.3816 11.9611 47.7488 12.4514 47.8454 13.079C47.9034 13.3928 47.8841 13.7458 47.8841 14.0596V17.982C47.8841 18.0408 47.8454 18.1977 47.8841 18.237C47.9034 18.2566 48 18.2762 48.0193 18.2762C48.1739 18.3154 48.3092 18.3546 48.4638 18.3939C48.5604 18.4135 48.5797 18.4135 48.5797 18.5115C48.5797 18.6096 48.599 18.6096 48.4831 18.6488C48.3478 18.7076 48.2126 18.7665 48.0773 18.8057C47.3623 19.0214 46.2416 19.0803 45.7198 18.4135C45.6812 18.3546 45.5652 18.0997 45.5072 18.0801C45.43 18.0604 45.1981 18.3742 45.1208 18.4331C44.8116 18.7076 44.4058 18.8645 44 18.9234C43.2464 19.0214 42.4348 18.8645 41.971 18.1977C41.5845 17.629 41.5072 16.7464 41.7971 16.1189C42.3188 14.9225 43.8647 14.8049 44.9855 14.6087C45.1208 14.6087 45.2754 14.5695 45.4493 14.5499ZM45.4493 17.8055V14.9029C44.8696 14.9421 44.2705 14.9814 44.058 15.6286C43.9034 16.06 43.9034 16.5699 43.9614 17.021C44 17.3348 44.0773 17.727 44.3672 17.9232C44.6763 18.1389 45.1981 18.0997 45.4493 17.8055ZM20.9855 14.5499C20.9855 14.04 21.0048 13.5105 20.9662 12.9809C20.9082 12.4122 20.7536 11.7846 20.1159 11.6669C19.9227 11.6277 19.5749 11.5689 19.4396 11.7258C19.3043 11.8631 19.2077 12.0592 19.0918 12.2161L18.1063 13.5693C18.0483 13.6478 17.9903 13.8047 17.913 13.8439C17.8937 13.8635 17.7005 13.8635 17.7005 13.8439C17.6812 13.8243 17.7005 13.687 17.7005 13.6478V12.0788C17.7005 12.02 17.6812 11.9219 17.7005 11.8631C17.7391 11.765 18.1449 11.7062 18.2609 11.6669C18.8019 11.5297 19.3623 11.4316 19.9034 11.3924C20.6957 11.3335 21.5845 11.3532 22.3188 11.7062C22.8986 11.9807 23.2657 12.471 23.3623 13.0986C23.4203 13.4124 23.401 13.7654 23.401 14.0792V18.0016C23.401 18.0605 23.3623 18.2173 23.401 18.2566C23.4203 18.2762 23.5169 18.2958 23.5362 18.2958C23.6908 18.335 23.8261 18.3742 23.9807 18.4135C24.0773 18.4331 24.0966 18.4331 24.0966 18.5311C24.0966 18.6292 24.1159 18.6292 24 18.6684C23.8647 18.7273 23.7295 18.7861 23.5942 18.8253C22.8792 19.041 21.7585 19.0999 21.2367 18.4331C21.1981 18.3742 21.0821 18.1193 21.0242 18.0997C20.9469 18.0801 20.715 18.3939 20.657 18.4527C20.3478 18.7273 19.942 18.8842 19.5362 18.943C18.7826 19.041 17.971 18.8842 17.5072 18.2173C17.1208 17.6486 17.0435 16.7661 17.3333 16.1385C17.8551 14.9421 19.401 14.8245 20.5024 14.6284C20.657 14.6087 20.8116 14.5695 20.9855 14.5499ZM20.9855 17.8055V14.9029C20.4058 14.9421 19.8068 14.9814 19.5942 15.6286C19.4396 16.06 19.4396 16.5699 19.4976 17.021C19.5362 17.3348 19.6135 17.727 19.9034 17.9232C20.2126 18.1389 20.7343 18.0997 20.9855 17.8055Z" fill="white"/>
</svg>
