<svg width="72" height="19" viewBox="0 0 72 19" fill="none" xmlns="http://www.w3.org/2000/svg">
<g clip-path="url(#clip0_225_578)">
<path d="M18.4212 11.4932C18.087 11.4932 17.7807 11.6677 17.6136 11.9587C17.4465 12.2497 17.4465 12.6279 17.6136 12.9189C17.7807 13.2099 18.087 13.399 18.4212 13.3844C18.9224 13.3699 19.3123 12.948 19.3123 12.4388C19.3262 11.9296 18.9224 11.5077 18.4212 11.4932Z" fill="#EC6519"/>
<path d="M17.2656 13.9663C16.8339 13.9663 16.4858 14.33 16.4858 14.7665C16.4858 15.2175 16.8339 15.5812 17.2656 15.5812C17.6972 15.5812 18.0453 15.2175 18.0453 14.7665C18.0453 14.33 17.6972 13.9663 17.2656 13.9663Z" fill="#EC6519"/>
<path d="M15.5745 17.2964C15.9434 17.2835 16.2325 16.9607 16.2202 16.5752C16.2079 16.1898 15.8989 15.8878 15.53 15.9006C15.1611 15.9134 14.872 16.2363 14.8843 16.6217C14.8966 17.0072 15.2056 17.3092 15.5745 17.2964Z" fill="#EC6519"/>
<path d="M13.6175 17.2104C13.3112 17.2104 13.0745 17.4578 13.0745 17.7778C13.0745 18.0979 13.3112 18.3452 13.6175 18.3452C13.9238 18.3452 14.1605 18.0979 14.1605 17.7778C14.1605 17.4578 13.9238 17.2104 13.6175 17.2104Z" fill="#EC6519"/>
<path d="M11.7239 17.8945C11.4733 17.8945 11.2644 18.1128 11.2644 18.3746C11.2644 18.6365 11.4733 18.8547 11.7239 18.8547C11.9745 18.8547 12.1834 18.6365 12.1834 18.3746C12.1973 18.1128 11.9884 17.8945 11.7239 17.8945Z" fill="#EC6519"/>
<path d="M9.95555 18.1709C9.73277 18.1709 9.55176 18.36 9.55176 18.5928C9.55176 18.8256 9.73277 19.0147 9.95555 19.0147C10.1783 19.0147 10.3593 18.8256 10.3593 18.5928C10.3454 18.36 10.1644 18.1709 9.95555 18.1709Z" fill="#EC6519"/>
<path d="M8.17335 17.8945C7.92272 17.8945 7.71387 18.1128 7.71387 18.3746C7.71387 18.6365 7.92272 18.8547 8.17335 18.8547C8.42398 18.8547 8.63284 18.6365 8.63284 18.3746C8.63284 18.1128 8.42398 17.8945 8.17335 17.8945Z" fill="#EC6519"/>
<path d="M6.27966 17.1958C6.08473 17.1958 5.90372 17.2976 5.80625 17.4722C5.70879 17.6468 5.70879 17.865 5.80625 18.0396C5.90372 18.2142 6.08473 18.316 6.27966 18.316C6.57206 18.316 6.82269 18.0687 6.82269 17.7486C6.80877 17.4577 6.57206 17.2103 6.27966 17.1958Z" fill="#EC6519"/>
<path d="M4.34431 15.9014C4.10761 15.9014 3.88483 16.0323 3.75951 16.2505C3.6342 16.4687 3.6342 16.7306 3.75951 16.9488C3.88483 17.1671 4.09368 17.298 4.34431 17.298C4.70633 17.298 5.01266 16.9925 5.01266 16.5997C5.01266 16.2214 4.72026 15.9014 4.34431 15.9014Z" fill="#EC6519"/>
<path d="M2.63154 13.9663C2.1999 13.9663 1.85181 14.33 1.85181 14.781C1.85181 15.232 2.1999 15.5957 2.63154 15.5957C3.06318 15.5957 3.41127 15.232 3.41127 14.781C3.39735 14.33 3.06318 13.9663 2.63154 13.9663Z" fill="#EC6519"/>
<path d="M1.47586 11.493C1.14169 11.4784 0.835369 11.6676 0.668283 11.9585C0.501197 12.2495 0.501197 12.6277 0.668283 12.9187C0.835369 13.2097 1.14169 13.3988 1.47586 13.3842C1.97712 13.3697 2.36699 12.9478 2.36699 12.4386C2.36699 11.9294 1.9632 11.5075 1.47586 11.493Z" fill="#EC6519"/>
<path d="M1.05821 8.40869C0.473409 8.40869 0 8.90333 0 9.51436C0 10.1254 0.473409 10.62 1.05821 10.62C1.64301 10.62 2.11642 10.1254 2.11642 9.51436C2.10249 8.90333 1.64301 8.40869 1.05821 8.40869Z" fill="#EC6519"/>
<path d="M1.47586 5.61572C1.14169 5.61572 0.835369 5.7903 0.668283 6.08127C0.501197 6.37223 0.501197 6.75049 0.668283 7.04145C0.835369 7.33242 1.14169 7.52154 1.47586 7.50699C1.97712 7.49245 2.36699 7.07055 2.36699 6.56136C2.36699 6.05217 1.9632 5.63027 1.47586 5.61572Z" fill="#EC6519"/>
<path d="M2.63167 3.41895C2.35319 3.41895 2.08864 3.56443 1.9494 3.8263C1.81016 4.07362 1.81016 4.39368 1.9494 4.641C2.08864 4.88832 2.35319 5.04835 2.63167 5.04835C3.04938 5.0338 3.39747 4.68464 3.39747 4.23365C3.38355 3.7972 3.04938 3.43349 2.63167 3.41895Z" fill="#EC6519"/>
<path d="M4.34412 1.70215C3.98211 1.70215 3.67578 2.00766 3.67578 2.40046C3.67578 2.77872 3.96818 3.09878 4.34412 3.09878C4.70614 3.09878 5.01247 2.79327 5.01247 2.40046C5.01247 2.02221 4.72007 1.70215 4.34412 1.70215Z" fill="#EC6519"/>
<path d="M6.2796 0.669434C5.9872 0.669434 5.73657 0.916754 5.73657 1.23681C5.73657 1.54233 5.97328 1.8042 6.2796 1.8042C6.572 1.8042 6.82263 1.55688 6.82263 1.23681C6.80871 0.931302 6.572 0.669434 6.2796 0.669434Z" fill="#EC6519"/>
<path d="M8.17336 0.145508C7.90881 0.145508 7.69995 0.363731 7.69995 0.640148C7.69995 0.916564 7.90881 1.13479 8.17336 1.13479C8.42399 1.13479 8.63285 0.916564 8.63285 0.654696C8.61892 0.363731 8.42399 0.145508 8.17336 0.145508Z" fill="#EC6519"/>
<path d="M9.94163 0C9.71885 0 9.53784 0.189127 9.53784 0.421899C9.53784 0.654671 9.71885 0.843798 9.94163 0.843798C10.1644 0.843798 10.3454 0.654671 10.3454 0.421899C10.3454 0.189127 10.1644 0 9.94163 0Z" fill="#EC6519"/>
<path d="M11.7239 0.145508C11.4733 0.145508 11.2644 0.363731 11.2644 0.6256C11.2644 0.887468 11.4733 1.10569 11.7239 1.10569C11.9745 1.10569 12.1834 0.887468 12.1834 0.6256C12.1973 0.363731 11.9884 0.145508 11.7239 0.145508Z" fill="#EC6519"/>
<path d="M13.6176 0.669434C13.4226 0.669434 13.2416 0.771271 13.1441 0.94585C13.0467 1.12043 13.0467 1.33865 13.1441 1.51323C13.2416 1.68781 13.4226 1.78965 13.6176 1.78965C13.91 1.78965 14.1606 1.54233 14.1606 1.22227C14.1606 0.902205 13.9239 0.669434 13.6176 0.669434Z" fill="#EC6519"/>
<path d="M15.5529 1.7168C15.1908 1.7168 14.8845 2.02231 14.8845 2.41511C14.8845 2.79337 15.1769 3.11343 15.5529 3.11343C15.9149 3.11343 16.2212 2.80791 16.2212 2.41511C16.2212 2.02231 15.9149 1.7168 15.5529 1.7168Z" fill="#EC6519"/>
<path d="M17.2656 3.41895C16.8339 3.41895 16.4858 3.78265 16.4858 4.23365C16.4858 4.68464 16.8339 5.04835 17.2656 5.04835C17.6972 5.04835 18.0453 4.68464 18.0453 4.23365C18.0453 3.78265 17.6972 3.41895 17.2656 3.41895Z" fill="#EC6519"/>
<path d="M18.4212 5.61572C18.087 5.61572 17.7807 5.7903 17.6136 6.08127C17.4465 6.37223 17.4465 6.75049 17.6136 7.04145C17.7807 7.33242 18.087 7.52154 18.4212 7.50699C18.9224 7.49245 19.3123 7.07055 19.3123 6.56136C19.3123 6.03762 18.9224 5.61572 18.4212 5.61572Z" fill="#EC6519"/>
<path d="M14.2441 10.9546C14.0909 10.9546 13.9517 11.0273 13.882 11.1583C13.8124 11.2892 13.8124 11.4638 13.882 11.5947C13.9517 11.7256 14.0909 11.8129 14.2441 11.7984C14.4668 11.7838 14.6339 11.5947 14.6339 11.3765C14.6479 11.1583 14.4668 10.9691 14.2441 10.9546Z" fill="#EC6519"/>
<path d="M13.2277 12.5405C13.0745 12.5405 12.9353 12.6133 12.8657 12.7442C12.7961 12.8751 12.7961 13.0497 12.8657 13.1807C12.9353 13.3116 13.0885 13.3989 13.2277 13.3843C13.4505 13.3698 13.6176 13.1807 13.6176 12.9624C13.6176 12.7442 13.4505 12.5551 13.2277 12.5405Z" fill="#EC6519"/>
<path d="M11.7098 13.5591C11.5567 13.5591 11.4035 13.6464 11.32 13.7919C11.2364 13.9373 11.2364 14.1119 11.32 14.2574C11.4035 14.4029 11.5428 14.4902 11.7098 14.4902C11.9605 14.4902 12.1554 14.2865 12.1554 14.0246C12.1554 13.7628 11.9605 13.5591 11.7098 13.5591Z" fill="#EC6519"/>
<path d="M9.92758 13.8354C9.59341 13.8354 9.32886 14.1119 9.32886 14.461C9.32886 14.8102 9.59341 15.0866 9.92758 15.0866C10.2618 15.0866 10.5263 14.8102 10.5263 14.461C10.5124 14.1119 10.2478 13.8354 9.92758 13.8354Z" fill="#EC6519"/>
<path d="M8.13149 13.457C7.75554 13.457 7.44922 13.7771 7.44922 14.1699C7.44922 14.5627 7.75554 14.8828 8.13149 14.8828C8.50743 14.8828 8.81375 14.5627 8.81375 14.1699C8.81375 13.7771 8.50743 13.457 8.13149 13.457Z" fill="#EC6519"/>
<path d="M6.51629 12.2642C6.09858 12.2642 5.7644 12.6133 5.7644 13.0498C5.7644 13.4862 6.09858 13.8354 6.51629 13.8354C6.934 13.8354 7.26817 13.4862 7.26817 13.0498C7.26817 12.6133 6.934 12.2642 6.51629 12.2642Z" fill="#EC6519"/>
<path d="M5.4442 10.6641C5.0961 10.6641 4.81763 10.955 4.81763 11.3187C4.81763 11.6824 5.0961 11.9734 5.4442 11.9734C5.79229 11.9734 6.07077 11.6824 6.07077 11.3187C6.08469 10.9696 5.79229 10.6641 5.4442 10.6641Z" fill="#EC6519"/>
<path d="M5.19363 8.91797C4.92908 8.91797 4.7063 9.15074 4.7063 9.42716C4.7063 9.70357 4.92908 9.93635 5.19363 9.93635C5.45818 9.93635 5.68097 9.70357 5.68097 9.42716C5.68097 9.13619 5.47211 8.91797 5.19363 8.91797Z" fill="#EC6519"/>
<path d="M5.62523 7.20117C5.40245 7.20117 5.22144 7.3903 5.22144 7.62307C5.22144 7.85584 5.40245 8.04497 5.62523 8.04497C5.84801 8.04497 6.02902 7.85584 6.02902 7.62307C6.04294 7.3903 5.84801 7.20117 5.62523 7.20117Z" fill="#EC6519"/>
<path d="M6.65569 5.63037C6.50253 5.63037 6.36329 5.70311 6.29367 5.83405C6.22405 5.96498 6.22405 6.13956 6.29367 6.27049C6.36329 6.40143 6.51645 6.48872 6.65569 6.47417C6.87847 6.47417 7.05948 6.28504 7.05948 6.05227C7.04555 5.8195 6.86454 5.63037 6.65569 5.63037Z" fill="#EC6519"/>
<path d="M8.15943 4.52441C7.9088 4.52441 7.71387 4.72809 7.71387 4.98996C7.71387 5.25183 7.9088 5.4555 8.15943 5.4555C8.41006 5.4555 8.60499 5.25183 8.60499 4.98996C8.60499 4.74264 8.41006 4.52441 8.15943 4.52441Z" fill="#EC6519"/>
<path d="M10.5511 4.56985C10.5638 4.2246 10.3062 3.93397 9.9758 3.92071C9.64537 3.90745 9.36721 4.17658 9.35452 4.52184C9.34183 4.86709 9.59941 5.15772 9.92985 5.17098C10.2603 5.18424 10.5384 4.9151 10.5511 4.56985Z" fill="#EC6519"/>
<path d="M11.7377 4.13184C11.3617 4.13184 11.0554 4.4519 11.0554 4.8447C11.0554 5.2375 11.3617 5.55756 11.7377 5.55756C12.1136 5.55756 12.42 5.2375 12.42 4.8447C12.42 4.4519 12.1136 4.13184 11.7377 4.13184Z" fill="#EC6519"/>
<path d="M13.353 5.1792C12.9352 5.1792 12.6011 5.52836 12.6011 5.9648C12.6011 6.40125 12.9352 6.75041 13.353 6.75041C13.7707 6.75041 14.1048 6.40125 14.1048 5.9648C14.1048 5.52836 13.7707 5.1792 13.353 5.1792Z" fill="#EC6519"/>
<path d="M14.4252 7.02686C14.0771 7.02686 13.7986 7.31782 13.7986 7.68153C13.7986 8.04523 14.0771 8.3362 14.4252 8.3362C14.7733 8.3362 15.0517 8.04523 15.0517 7.68153C15.0517 7.31782 14.7733 7.02686 14.4252 7.02686Z" fill="#EC6519"/>
<path d="M12.7819 10.7075C12.9896 10.7075 13.1579 10.5316 13.1579 10.3147C13.1579 10.0977 12.9896 9.92188 12.7819 9.92188C12.5743 9.92188 12.406 10.0977 12.406 10.3147C12.406 10.5316 12.5743 10.7075 12.7819 10.7075Z" fill="#EC6519"/>
<path d="M12.044 11.144C11.7377 11.144 11.4871 11.4059 11.4871 11.726C11.4871 12.046 11.7377 12.3079 12.044 12.3079C12.3503 12.3079 12.601 12.046 12.601 11.726C12.6149 11.4059 12.3643 11.144 12.044 11.144Z" fill="#EC6519"/>
<path d="M10.6099 11.9297C10.2897 11.9297 10.0251 12.2061 10.0251 12.5407C10.0251 12.8753 10.2897 13.1517 10.6099 13.1517C10.9302 13.1517 11.1947 12.8753 11.1947 12.5407C11.1947 12.2061 10.9302 11.9297 10.6099 11.9297Z" fill="#EC6519"/>
<path d="M8.91124 11.8857C8.73023 11.8857 8.54922 11.9876 8.46568 12.1622C8.36821 12.3367 8.36821 12.5404 8.46568 12.7004C8.56314 12.875 8.73023 12.9769 8.91124 12.9769C9.20364 12.9769 9.42642 12.7295 9.42642 12.4386C9.44034 12.1331 9.20364 11.8857 8.91124 11.8857Z" fill="#EC6519"/>
<path d="M7.65817 10.9985C7.44931 10.9985 7.28223 11.1731 7.28223 11.3913C7.28223 11.6096 7.44931 11.7841 7.65817 11.7841C7.86703 11.7841 8.03411 11.6096 8.03411 11.3913C8.04804 11.1877 7.86703 10.9985 7.65817 10.9985Z" fill="#EC6519"/>
<path d="M7.15689 9.84912C7.00373 9.84912 6.87842 9.98006 6.87842 10.1401C6.87842 10.3001 7.00373 10.4311 7.15689 10.4311C7.31006 10.4311 7.43537 10.3001 7.43537 10.1401C7.43537 9.98006 7.31006 9.84912 7.15689 9.84912Z" fill="#EC6519"/>
<path d="M7.12887 8.35059C6.92002 8.35059 6.75293 8.52516 6.75293 8.74339C6.75293 8.96161 6.92002 9.13619 7.12887 9.13619C7.33773 9.13619 7.50482 8.96161 7.50482 8.74339C7.50482 8.52516 7.33773 8.35059 7.12887 8.35059Z" fill="#EC6519"/>
<path d="M7.86701 6.73584C7.56069 6.73584 7.31006 6.99771 7.31006 7.31777C7.31006 7.63783 7.56069 7.8997 7.86701 7.8997C8.17333 7.8997 8.42396 7.63783 8.42396 7.31777C8.42396 6.99771 8.17333 6.73584 7.86701 6.73584Z" fill="#EC6519"/>
<path d="M9.30111 5.89209C8.98086 5.89209 8.71631 6.16851 8.71631 6.50312C8.71631 6.83773 8.98086 7.11414 9.30111 7.11414C9.62136 7.11414 9.88591 6.83773 9.88591 6.50312C9.88591 6.16851 9.62136 5.89209 9.30111 5.89209Z" fill="#EC6519"/>
<path d="M10.9999 6.08105C10.8049 6.08105 10.6379 6.18289 10.5404 6.34292C10.4429 6.5175 10.4429 6.72118 10.5404 6.89576C10.6379 7.07033 10.8189 7.17217 10.9999 7.15762C11.2783 7.14308 11.5011 6.9103 11.5011 6.61934C11.5011 6.32837 11.2783 6.0956 10.9999 6.08105Z" fill="#EC6519"/>
<path d="M12.239 7.24512C12.0301 7.24512 11.863 7.4197 11.863 7.63792C11.863 7.85614 12.0301 8.03072 12.239 8.03072C12.4478 8.03072 12.6149 7.85614 12.6149 7.63792C12.6288 7.4197 12.4618 7.24512 12.239 7.24512Z" fill="#EC6519"/>
<path d="M12.7682 8.62695C12.6151 8.62695 12.4897 8.75789 12.4897 8.91792C12.4897 9.07795 12.6151 9.20888 12.7682 9.20888C12.9214 9.20888 13.0467 9.07795 13.0467 8.91792C13.0467 8.75789 12.9214 8.62695 12.7682 8.62695Z" fill="#EC6519"/>
<path d="M14.6758 9.07812C14.4113 9.07812 14.1885 9.3109 14.1885 9.58731C14.1885 9.86373 14.4113 10.0965 14.6758 10.0965C14.9404 10.0965 15.1631 9.86373 15.1631 9.58731C15.1631 9.3109 14.9404 9.07812 14.6758 9.07812Z" fill="#EC6519"/>
<path d="M16.6946 9.70361C16.4022 9.70361 16.1794 9.95093 16.1794 10.2419C16.1794 10.5474 16.4161 10.7802 16.6946 10.7802C16.987 10.7802 17.2098 10.5329 17.2098 10.2419C17.2098 9.95093 16.987 9.70361 16.6946 9.70361Z" fill="#EC6519"/>
<path d="M16.1795 11.6094C15.9149 11.6094 15.6921 11.8421 15.6921 12.1186C15.6921 12.395 15.9149 12.6278 16.1795 12.6278C16.444 12.6278 16.6668 12.395 16.6668 12.1186C16.6668 11.8421 16.4579 11.6094 16.1795 11.6094Z" fill="#EC6519"/>
<path d="M15.3022 13.21C15.0795 13.21 14.8845 13.3991 14.8845 13.6464C14.8845 13.8792 15.0655 14.0829 15.3022 14.0829C15.525 14.0829 15.706 13.8792 15.706 13.6464C15.706 13.4136 15.525 13.2245 15.3022 13.21Z" fill="#EC6519"/>
<path d="M14.244 14.4028C14.1187 14.4028 13.9934 14.4756 13.9238 14.592C13.8542 14.7083 13.8542 14.8538 13.9238 14.9702C13.9934 15.0866 14.1048 15.1593 14.244 15.1593C14.439 15.1593 14.6061 14.9993 14.6061 14.7811C14.6061 14.5774 14.439 14.4028 14.244 14.4028Z" fill="#EC6519"/>
<path d="M13.1301 15.2759C12.963 15.2759 12.8237 15.4214 12.8237 15.5959C12.8237 15.7705 12.963 15.916 13.1301 15.916C13.2971 15.916 13.4364 15.7705 13.4364 15.5959C13.4364 15.4214 13.2971 15.2759 13.1301 15.2759Z" fill="#EC6519"/>
<path d="M11.863 15.7705C11.6681 15.7705 11.501 15.9305 11.501 16.1488C11.501 16.3524 11.6541 16.527 11.863 16.527C12.0579 16.527 12.225 16.367 12.225 16.1488C12.2111 15.9305 12.0579 15.7705 11.863 15.7705Z" fill="#EC6519"/>
<path d="M10.3733 16.0176C10.1505 16.0176 9.95557 16.2067 9.95557 16.454C9.95557 16.6868 10.1366 16.8905 10.3733 16.8905C10.5961 16.8905 10.791 16.7013 10.791 16.454C10.7771 16.2067 10.5961 16.0176 10.3733 16.0176Z" fill="#EC6519"/>
<path d="M8.67461 15.8433C8.38221 15.8433 8.14551 16.0906 8.14551 16.3961C8.14551 16.7016 8.38221 16.9489 8.67461 16.9489C8.96701 16.9489 9.20372 16.7016 9.20372 16.3961C9.20372 16.0906 8.96701 15.8433 8.67461 15.8433Z" fill="#EC6519"/>
<path d="M6.87828 15.1738C6.53019 15.1738 6.25171 15.4648 6.25171 15.8285C6.25171 16.1922 6.53019 16.4832 6.87828 16.4832C7.22638 16.4832 7.50485 16.1922 7.50485 15.8285C7.51878 15.4648 7.22638 15.1738 6.87828 15.1738Z" fill="#EC6519"/>
<path d="M5.30499 13.9229C5.04044 13.9229 4.78981 14.0683 4.65057 14.3011C4.51133 14.5484 4.51133 14.8394 4.65057 15.0867C4.78981 15.334 5.04044 15.4795 5.30499 15.465C5.70878 15.4504 6.02903 15.1158 6.02903 14.6939C6.02903 14.2866 5.70878 13.9374 5.30499 13.9229Z" fill="#EC6519"/>
<path d="M3.98214 12.0605C3.53658 12.0605 3.17456 12.4388 3.17456 12.9043C3.17456 13.3699 3.53658 13.7481 3.98214 13.7481C4.4277 13.7481 4.78972 13.3699 4.78972 12.9043C4.78972 12.4243 4.4277 12.0605 3.98214 12.0605Z" fill="#EC6519"/>
<path d="M3.87495 10.8204C3.90002 10.4517 3.63431 10.1316 3.28146 10.1054C2.92861 10.0792 2.62224 10.3568 2.59716 10.7255C2.57209 11.0942 2.8378 11.4143 3.19065 11.4405C3.5435 11.4667 3.84987 11.1891 3.87495 10.8204Z" fill="#EC6519"/>
<path d="M3.71087 8.79061C3.7266 8.49377 3.50905 8.23981 3.22495 8.22337C2.94085 8.20693 2.69779 8.43424 2.68205 8.73108C2.66632 9.02792 2.88387 9.28188 3.16797 9.29832C3.45207 9.31476 3.69514 9.08745 3.71087 8.79061Z" fill="#EC6519"/>
<path d="M3.71756 6.37207C3.45301 6.37207 3.23022 6.60484 3.23022 6.88126C3.23022 7.15768 3.45301 7.39045 3.71756 7.39045C3.98211 7.39045 4.20489 7.15768 4.20489 6.88126C4.20489 6.60484 3.98211 6.37207 3.71756 6.37207Z" fill="#EC6519"/>
<path d="M4.5949 4.93164C4.44174 4.93164 4.3025 5.00438 4.23288 5.14986C4.16326 5.2808 4.16326 5.45538 4.23288 5.58631C4.3025 5.71724 4.45566 5.80453 4.5949 5.80453C4.81768 5.80453 4.99869 5.60086 4.99869 5.36809C4.99869 5.12077 4.81768 4.93164 4.5949 4.93164Z" fill="#EC6519"/>
<path d="M5.65303 3.85547C5.4581 3.85547 5.29102 4.0155 5.29102 4.23372C5.29102 4.4374 5.44418 4.61198 5.65303 4.61198C5.86189 4.61198 6.01505 4.45195 6.01505 4.23372C6.01505 4.03005 5.84797 3.85547 5.65303 3.85547Z" fill="#EC6519"/>
<path d="M6.76702 3.09863C6.59993 3.09863 6.46069 3.24412 6.46069 3.41869C6.46069 3.59327 6.59993 3.73876 6.76702 3.73876C6.9341 3.73876 7.07334 3.59327 7.07334 3.41869C7.07334 3.22957 6.9341 3.09863 6.76702 3.09863Z" fill="#EC6519"/>
<path d="M8.03414 2.50244C7.83921 2.50244 7.67212 2.66247 7.67212 2.8807C7.67212 3.08437 7.82528 3.25895 8.03414 3.25895C8.22907 3.25895 8.39616 3.09892 8.39616 2.8807C8.39616 2.66247 8.22907 2.50244 8.03414 2.50244Z" fill="#EC6519"/>
<path d="M9.52385 2.12402C9.37069 2.12402 9.23145 2.19676 9.16183 2.34225C9.09221 2.47318 9.09221 2.64776 9.16183 2.77869C9.23145 2.90963 9.38461 2.99692 9.52385 2.99692C9.74663 2.99692 9.92764 2.79324 9.92764 2.56047C9.92764 2.3277 9.74663 2.13857 9.52385 2.12402Z" fill="#EC6519"/>
<path d="M11.2225 2.05127C11.0276 2.05127 10.8466 2.15311 10.7491 2.32769C10.6517 2.50226 10.6517 2.72049 10.7491 2.89507C10.8466 3.06965 11.0276 3.17148 11.2225 3.17148C11.5149 3.17148 11.7516 2.90962 11.7516 2.6041C11.7516 2.29859 11.5149 2.05127 11.2225 2.05127Z" fill="#EC6519"/>
<path d="M12.963 2.47314C12.6149 2.47314 12.3225 2.76411 12.3225 3.14236C12.3225 3.50607 12.601 3.81158 12.963 3.81158C13.3111 3.81158 13.6035 3.52062 13.6035 3.14236C13.6035 2.77866 13.3111 2.47314 12.963 2.47314Z" fill="#EC6519"/>
<path d="M14.6061 3.52051C14.1884 3.52051 13.8682 3.86967 13.8682 4.29156C13.8682 4.71346 14.2023 5.06262 14.6061 5.06262C15.0238 5.06262 15.3441 4.71346 15.3441 4.29156C15.3441 3.86967 15.0099 3.52051 14.6061 3.52051Z" fill="#EC6519"/>
<path d="M15.9148 5.2666C15.6224 5.2666 15.3579 5.42663 15.2047 5.6885C15.0516 5.95037 15.0516 6.27043 15.2047 6.5323C15.3579 6.79417 15.6224 6.9542 15.9148 6.9542C16.3604 6.93965 16.7085 6.57594 16.7085 6.1104C16.6946 5.6594 16.3465 5.28115 15.9148 5.2666Z" fill="#EC6519"/>
<path d="M16.6529 7.57959C16.4302 7.57959 16.2074 7.69598 16.096 7.89965C15.9846 8.10333 15.9846 8.3652 16.096 8.56887C16.2074 8.77255 16.4302 8.90348 16.6529 8.88893C17.001 8.87438 17.2656 8.58342 17.2656 8.23426C17.2656 7.8851 17.001 7.59414 16.6529 7.57959Z" fill="#EC6519"/>
<path d="M19.8972 9.5002C19.8972 10.1112 19.4238 10.6059 18.839 10.6059C18.2542 10.6059 17.7808 10.1112 17.7808 9.5002C17.7808 8.88917 18.2542 8.39453 18.839 8.39453C19.4238 8.40908 19.8972 8.90372 19.8972 9.5002Z" fill="#EC6519"/>
<path d="M71.9999 11.2019C71.9999 10.1545 71.4291 9.60163 70.5379 9.22337C69.8418 8.93241 69.2291 8.68509 68.7557 8.48141C68.2962 8.29228 67.8924 7.95768 67.8924 7.59397C67.8924 7.09933 68.4772 6.80836 69.257 6.80836C70.1759 6.80836 70.9 6.9393 71.5822 7.01204H71.6101C71.7215 7.01204 71.7911 6.92475 71.7911 6.80836V5.99366C71.7911 5.89183 71.7075 5.80454 71.5962 5.78999C71.2341 5.7027 70.3152 5.49902 69.3126 5.49902C67.3633 5.49902 66.4304 6.37192 66.4304 7.59397C66.4304 8.36503 66.7507 9.12153 67.6696 9.51434C68.5886 9.90714 70.4683 10.3727 70.4683 11.1874C70.4683 11.8275 70.1898 12.1767 69.243 12.1767C68.2684 12.1767 67.2798 12.0312 66.8621 11.973H66.8342C66.7228 11.973 66.6393 12.0603 66.6393 12.1767V12.9623C66.6393 13.0787 66.7367 13.1659 66.8342 13.1805C67.3355 13.2969 68.2823 13.4715 69.2152 13.4715C71.3455 13.5006 71.9999 12.3076 71.9999 11.2019Z" fill="white"/>
<path d="M51.3927 6.86667H49.2902V13.1806C49.2902 13.297 49.1927 13.3988 49.0813 13.3988H48.0371C47.9257 13.3988 47.8282 13.297 47.8282 13.1806V6.86667H45.7257C45.6143 6.86667 45.5168 6.79393 45.5168 6.66299V5.7901C45.5168 5.67371 45.6143 5.58643 45.7257 5.58643H51.3927C51.5041 5.58643 51.6016 5.67371 51.6016 5.7901V6.66299C51.6016 6.79393 51.5041 6.86667 51.3927 6.86667Z" fill="white"/>
<path d="M44.598 10.3874V5.80475C44.598 5.68836 44.5005 5.60107 44.3891 5.60107H43.3449C43.2335 5.60107 43.136 5.68836 43.136 5.80475V10.3729C43.136 11.624 42.5791 12.2205 41.4512 12.2205C40.3234 12.2205 39.7664 11.624 39.7664 10.3729V5.80475C39.7664 5.68836 39.669 5.60107 39.5576 5.60107H38.5133C38.4019 5.60107 38.3044 5.68836 38.3044 5.80475V10.3729C38.3044 12.7152 39.7664 13.4862 41.4512 13.4862C43.136 13.4862 44.598 12.7297 44.598 10.3874Z" fill="white"/>
<path d="M54.0243 10.0091H57.3938C57.5052 10.0091 57.6027 9.90724 57.6027 9.79086V8.9907C57.6027 8.87432 57.5052 8.77248 57.3938 8.77248H54.0243V7.76865C54.0243 6.85211 54.0521 6.82302 54.8597 6.82302H57.5191C57.6305 6.82302 57.728 6.72118 57.728 6.60479V5.90648C57.728 5.74645 57.6723 5.7028 57.5191 5.6737C57.185 5.61551 56.5027 5.51367 55.2495 5.51367C53.5091 5.51367 52.5762 5.49913 52.5762 7.76865V11.2457C52.5762 13.5152 53.5091 13.5007 55.2495 13.5007C56.5027 13.5007 57.185 13.3988 57.5191 13.3406C57.6723 13.3261 57.728 13.2679 57.728 13.1079V12.4095C57.728 12.2932 57.6305 12.1913 57.5191 12.1913H54.8597C54.066 12.1913 54.0243 12.1622 54.0243 11.2457V10.0091Z" fill="white"/>
<path d="M33.2362 10.0091H36.6057C36.7171 10.0091 36.8146 9.90724 36.8146 9.79086V8.9907C36.8146 8.87432 36.7171 8.77248 36.6057 8.77248H33.2362V7.76865C33.2362 6.85211 33.264 6.82302 34.0716 6.82302H36.731C36.8424 6.82302 36.9399 6.72118 36.9399 6.60479V5.90648C36.9399 5.74645 36.8842 5.7028 36.731 5.6737C36.3969 5.61551 35.7146 5.51367 34.4615 5.51367C32.721 5.51367 31.7881 5.49913 31.7881 7.76865V11.2457C31.7881 13.5152 32.721 13.5007 34.4615 13.5007C35.7146 13.5007 36.3969 13.3988 36.731 13.3406C36.8842 13.3261 36.9399 13.2679 36.9399 13.1079V12.4095C36.9399 12.2932 36.8424 12.1913 36.731 12.1913H34.0716C33.2779 12.1913 33.2362 12.1622 33.2362 11.2457V10.0091Z" fill="white"/>
<path d="M65.5533 13.1806L63.9103 10.2418C64.7735 9.89269 65.3305 9.25257 65.3305 8.08871V8.00142C65.3305 6.1247 63.8406 5.51367 62.2115 5.51367C61.4457 5.51367 60.2622 5.57186 59.7192 5.65915C59.5103 5.68825 59.385 5.77554 59.385 5.99376V13.1951C59.385 13.3115 59.4825 13.4134 59.5939 13.4134H60.6521C60.7635 13.4134 60.847 13.3115 60.847 13.1951V10.4746C61.0837 10.4892 61.9331 10.5183 62.2115 10.5183H62.4482L63.9659 13.1806C64.0216 13.2824 64.0634 13.3988 64.1748 13.3988H65.4558C65.5393 13.3988 65.5811 13.3406 65.5811 13.2679C65.5811 13.2388 65.5672 13.2097 65.5533 13.1806ZM63.8685 8.08871C63.8685 9.04889 63.2837 9.26712 62.1976 9.26712C62.0166 9.26712 61.0002 9.23802 60.8331 9.23802V6.86666C61.0141 6.83756 61.9748 6.82301 62.1976 6.82301C63.2558 6.82301 63.8685 7.17217 63.8685 8.00142V8.08871Z" fill="white"/>
<path d="M30.6463 13.1806L28.9893 10.2418C29.8526 9.89269 30.4096 9.25257 30.4096 8.08871V8.00142C30.4096 6.1247 28.9197 5.51367 27.2906 5.51367C26.5248 5.51367 25.3413 5.57186 24.7983 5.65915C24.5894 5.68825 24.4641 5.77554 24.4641 5.99376V13.1951C24.4641 13.3115 24.5616 13.4134 24.673 13.4134H25.7312C25.8426 13.4134 25.9261 13.3115 25.9261 13.1951V10.4746C26.1628 10.4892 27.0122 10.5183 27.2906 10.5183H27.5273L29.045 13.1806C29.1007 13.2824 29.1425 13.3988 29.2539 13.3988H30.5349C30.6184 13.3988 30.6602 13.3406 30.6602 13.2679C30.6602 13.2388 30.6602 13.2097 30.6463 13.1806ZM28.9615 8.08871C28.9615 9.04889 28.3767 9.26712 27.3046 9.26712C27.1236 9.26712 26.1071 9.23802 25.94 9.23802V6.86666C26.121 6.83756 27.0818 6.82301 27.3046 6.82301C28.3628 6.82301 28.9615 7.17217 28.9615 8.00142V8.08871Z" fill="white"/>
</g>
<defs>
<clipPath id="clip0_225_578">
<rect width="72" height="19" fill="white"/>
</clipPath>
</defs>
</svg>
