<svg width="164" height="49" viewBox="0 0 164 49" fill="none" xmlns="http://www.w3.org/2000/svg">
<path d="M45.1837 3.37939H0V23.6553H45.1837V3.37939Z" fill="#005BBB"/>
<path d="M45.1837 23.6553H0V43.9311H45.1837V23.6553Z" fill="#FFD500"/>
<path d="M59.1875 10.4761H73.0438C76.1766 10.4761 78.9344 11.0573 81.3175 12.2198C83.7273 13.3552 85.5882 14.9908 86.9002 17.1266C88.2389 19.2623 88.9083 21.7765 88.9083 24.6692C88.9083 27.5619 88.2389 30.0761 86.9002 32.2118C85.5882 34.3475 83.7273 35.9966 81.3175 37.1591C78.9344 38.2946 76.1766 38.8623 73.0438 38.8623H59.1875V10.4761ZM72.6422 31.4008C74.6771 31.4008 76.2971 30.8195 77.502 29.657C78.7336 28.4675 79.3495 26.8049 79.3495 24.6692C79.3495 22.5335 78.7336 20.8843 77.502 19.7219C76.2971 18.5323 74.6771 17.9376 72.6422 17.9376H68.666V31.4008H72.6422ZM110.443 31.7252H107.872V38.8623H98.3937V10.4761H111.929C114.526 10.4761 116.788 10.9086 118.716 11.7737C120.644 12.6388 122.13 13.8824 123.174 15.5045C124.219 17.1266 124.741 19.019 124.741 21.1817C124.741 23.2093 124.286 24.9801 123.375 26.494C122.465 28.0079 121.153 29.211 119.439 30.1031L125.343 38.8623H115.222L110.443 31.7252ZM115.182 21.1817C115.182 20.1274 114.861 19.3163 114.218 18.7486C113.575 18.1539 112.612 17.8565 111.326 17.8565H107.872V24.507H111.326C112.612 24.507 113.575 24.2231 114.218 23.6554C114.861 23.0606 115.182 22.2361 115.182 21.1817ZM147.799 39.5111C143.488 39.5111 140.128 38.3351 137.718 35.9831C135.308 33.6311 134.104 30.3329 134.104 26.0885V10.4761H143.582V25.8046C143.582 27.8863 143.944 29.4002 144.666 30.3464C145.416 31.2926 146.487 31.7657 147.88 31.7657C149.272 31.7657 150.33 31.2926 151.052 30.3464C151.802 29.4002 152.177 27.8863 152.177 25.8046V10.4761H161.495V26.0885C161.495 30.3329 160.29 33.6311 157.88 35.9831C155.47 38.3351 152.11 39.5111 147.799 39.5111Z" fill="white"/>
</svg>
