<svg width="66" height="19" viewBox="0 0 66 19" fill="none" xmlns="http://www.w3.org/2000/svg">
<g clip-path="url(#clip0_225_1206)">
<path d="M35.7599 12.2801C35.7599 14.3448 33.2162 14.2223 33.2162 14.2223H30.6726V10.4914H33.2162C35.834 10.4737 35.7599 12.2801 35.7599 12.2801ZM30.6726 4.80153H32.6109C34.6236 4.90893 34.5476 6.4226 34.5476 6.4226C34.5476 8.30367 32.322 8.33433 32.322 8.33433H30.6726V4.80153ZM35.2894 9.068C35.2894 9.068 37.0305 8.3186 37.015 6.33087C37.015 6.33087 37.2798 3.07327 33.0069 2.67593H28.2656V16.3325H33.7003C33.7003 16.3325 38.2412 16.3462 38.2412 12.4793C38.2411 12.4793 38.3485 9.84773 35.2894 9.068ZM23.019 0H42.9809V19.0009H23.019V0ZM12.7407 12.2801C12.7407 14.3448 10.197 14.2223 10.197 14.2223H7.65316V10.4914H10.197C12.815 10.4737 12.7407 12.2801 12.7407 12.2801ZM7.65316 4.80153H9.59185C11.6046 4.90893 11.5285 6.4226 11.5285 6.4226C11.5285 8.30367 9.30303 8.33433 9.30303 8.33433H7.65316V4.80153ZM12.2704 9.068C12.2704 9.068 14.0117 8.3186 13.9961 6.33087C13.9961 6.33087 14.2607 3.07327 9.98778 2.67593H5.24627V16.3325H10.6813C10.6813 16.3325 15.2222 16.3462 15.2222 12.4793C15.2222 12.4793 15.3292 9.84773 12.2704 9.068ZM0 0H19.9619V19.0009H0V0ZM61.9279 3.655V6.17807C61.9279 6.17807 59.4897 4.6646 56.7954 4.63413C56.7954 4.63413 51.7688 4.53447 51.5422 9.50113C51.5422 9.50113 51.3607 14.0687 56.7349 14.3289C56.7349 14.3289 58.9897 14.6033 62.0488 12.6329V15.2459C62.0488 15.2459 57.9454 17.7085 53.1918 15.8117C53.1918 15.8117 49.1958 14.3378 49.0436 9.50113C49.0436 9.50113 48.8774 4.52653 54.2068 2.8752C54.2068 2.8752 55.6299 2.32487 58.1874 2.56947C58.1875 2.5694 59.7161 2.72213 61.9279 3.655ZM46.0381 19.0009H66V0H46.0381V19.0009Z" fill="white"/>
</g>
<defs>
<clipPath id="clip0_225_1206">
<rect width="66" height="19" fill="white"/>
</clipPath>
</defs>
</svg>
