<svg width="283" height="158" viewBox="0 0 283 158" fill="none" xmlns="http://www.w3.org/2000/svg">
<path d="M6.29788 134.979C9.22007 134.659 12.2919 134.499 15.4654 134.499C20.9568 134.499 25.2384 135.172 28.0086 136.674C30.8794 138.113 32.5416 140.255 32.5416 143.295C32.5416 147.514 29.7702 151.32 25.5902 153.463C21.6616 155.478 16.674 156.342 9.31946 156.342C5.23891 156.342 1.71241 156.118 0 155.924L6.29788 134.979ZM8.3633 152.471C9.22007 152.565 10.2779 152.597 11.5368 152.597C15.4654 152.597 18.9416 151.735 21.159 150.104C23.4757 148.442 24.6843 146.171 24.6843 143.453C24.6843 140.031 21.7622 138.176 15.8687 138.176C14.4578 138.176 13.4 138.241 12.6449 138.336L8.3633 152.471Z" fill="#151419"/>
<path d="M52.6929 150.582L48.7141 156.177H40.9562L57.5297 134.626H66.8492L70.7778 156.177H63.1707L62.4659 150.582H52.6929ZM62.1632 147.065L61.5075 142.428C61.3567 141.245 61.2047 139.518 61.0551 138.207H60.9043C60.0475 139.518 59.0902 141.182 58.1843 142.428L54.8589 147.065H62.1632Z" fill="#151419"/>
<path d="M85.536 157.999L91.9835 136.447H100.498L104.981 144.665C106.341 147.416 107.248 149.654 108.053 152.022H108.205C108.356 149.813 108.859 147.448 109.767 144.282L112.084 136.447H118.884L112.434 157.999H104.93L100.194 149.398C98.6824 146.457 97.7753 144.506 96.8694 141.884H96.7187C96.3657 143.994 95.558 147.031 94.5516 150.453L92.2863 158H85.536V157.999Z" fill="#151419"/>
<path d="M139.536 152.403L135.558 157.999H127.8L144.374 136.447H153.692L157.621 157.999H150.016L149.31 152.403H139.536ZM149.007 148.886L148.351 144.25C148.202 143.066 148.051 141.339 147.899 140.028H147.747C146.89 141.339 145.934 143.004 145.026 144.25L141.703 148.886H149.007Z" fill="#151419"/>
<path d="M186.083 136.447L183.564 144.825H195.856L198.374 136.447H205.678L199.23 157.999H191.975L194.646 148.918H182.303L179.634 157.999H172.38L178.828 136.447H186.083Z" fill="#151419"/>
<path d="M239.074 148.821H227.036L225.473 154.066H239.024L237.814 157.999H217.009L223.459 136.447H243.558L242.348 140.38H229.553L228.144 144.953H240.284L239.074 148.821Z" fill="#151419"/>
<path d="M260.535 136.863C262.8 136.511 266.226 136.319 269.603 136.319C272.825 136.319 276.151 136.608 278.519 137.567C280.735 138.398 282.297 139.741 282.297 141.755C282.297 144.953 278.972 146.935 274.589 147.832V147.927C276.605 148.502 277.512 149.91 277.813 151.859C278.266 154.291 278.519 157.105 279.123 157.998H271.668C271.364 157.424 271.013 155.569 270.711 152.915C270.358 150.293 268.947 149.493 266.076 149.493H263.86L261.341 157.997H254.188L260.535 136.863ZM264.967 146.041H267.938C271.867 146.041 274.739 144.538 274.739 142.427C274.739 140.701 272.472 139.933 269.551 139.933C268.191 139.933 267.335 139.997 266.728 140.094L264.967 146.041Z" fill="#151419"/>
<path d="M221.168 18.9482C215.591 -0.271878 178.621 -5.78725 138.595 6.65237C136.707 7.21847 134.855 7.85192 133.015 8.50721C168.805 -0.0698286 199.902 5.5766 204.817 22.545C210.238 41.1371 182.176 66.2875 142.149 78.7071C141.227 78.9856 140.332 79.255 139.422 79.5208L158.067 12.9086L157.983 12.9213L158.03 12.9086L153.141 13.2563C144 14.1919 134.264 16.165 124.312 19.2522C84.2827 31.6863 56.3573 57.3319 61.9579 76.5701C67.5356 95.7847 104.516 101.286 144.546 88.8496C146.43 88.2653 148.292 87.6409 150.125 87.0111C114.326 95.5791 83.2298 89.9344 78.3071 72.9806C72.8949 54.3685 100.958 29.2217 140.998 16.7948C141.841 16.5327 142.683 16.2815 143.517 16.0358L125.121 82.5843L130.005 82.253C139.155 81.3119 148.879 79.326 158.826 76.248C198.847 63.8211 226.758 38.1591 221.168 18.9482Z" fill="#013C80"/>
</svg>
