<svg xmlns="http://www.w3.org/2000/svg" width="278" height="36" xml:space="preserve"><path d="M154.288 14.291c0 .379-.073.787-.219 1.224a5.996 5.996 0 0 1-.634 1.312c-.277.438-.671.867-1.181 1.29-.51.423-.982.78-1.42 1.071a16.72 16.72 0 0 1-.874-1.857 5.198 5.198 0 0 1-.394-1.946c0-.379.095-.801.284-1.267.189-.466.415-.831.678-1.093.262-.262.539-.438.83-.524.291-.087.611-.132.962-.132.437 0 .794.102 1.07.307.276.204.458.379.546.525.087.145.175.32.262.524.061.231.09.421.09.566zm34.662-9.573c-.904 0-1.604-.073-2.099-.218-.641.991-1.34 2.091-2.098 3.3a80.283 80.283 0 0 1-2.316 3.497 157.925 157.925 0 0 1-2.295 3.191 137.076 137.076 0 0 1-2.208 2.907l-2.054-6.688-1.792-6.119c-.467.087-.955.145-1.465.174-.51.03-1.027.045-1.551.045-.787 0-1.596-.029-2.426-.088a38.114 38.114 0 0 1-1.945-.175l5.814 16.391-2.404 12.414h6.294l2.404-12.938 6.818-9.048 5.201-6.775c-.581.087-1.208.13-1.878.13zM42.303 33.349h16.129a.765.765 0 0 0-.087-.219v-.394c0-.554.058-1.1.175-1.639.116-.539.262-.939.437-1.202-.758.088-1.581.168-2.47.24-.889.073-1.756.109-2.601.109-.612 0-1.428.015-2.447.043-1.021.03-1.764.044-2.23.044l2.186-10.928a135.545 135.545 0 0 0 4.765.087c.815 0 1.603.051 2.36.153.757.102 1.529.196 2.316.284 0-.67.065-1.348.196-2.032.131-.686.313-1.203.547-1.552-.846.088-1.713.161-2.601.219-.89.059-1.756.087-2.602.087-.903 0-1.72-.007-2.448-.022a94.412 94.412 0 0 0-1.923-.022l1.705-9.092 4.895.088c.845 0 1.646.066 2.404.196.758.132 1.53.27 2.317.415 0-.378.087-1.012.262-1.9s.32-1.464.437-1.727H48.028l-5.725 28.764zm116.924-11.102c-.467.67-.86 1.202-1.18 1.595-.321.394-.692.83-1.114 1.312-.423.48-.925.983-1.508 1.508l-3.978-6.207a20.34 20.34 0 0 0 1.377-.765 11.41 11.41 0 0 0 1.573-1.158c.539-.467.911-.809 1.115-1.027s.422-.524.656-.918c.233-.393.4-.838.502-1.333.102-.495.139-.874.11-1.137 0-.35-.081-.685-.241-1.006-.16-.32-.444-.685-.853-1.092a3.3 3.3 0 0 0-1.464-.852c-.568-.161-1.362-.24-2.382-.24-.904 0-1.786.153-2.645.459-.859.306-1.733.903-2.622 1.792-.889.889-1.334 2.105-1.334 3.649 0 .991.183 1.931.547 2.819s.634 1.479.809 1.771a66.264 66.264 0 0 0-3.125 1.727c-1.122.655-1.996 1.354-2.623 2.098-.627.743-1.049 1.42-1.268 2.032a5.186 5.186 0 0 0-.327 1.748c0 .321.043.671.131 1.05.087.379.226.751.416 1.115.189.364.517.75.983 1.158.467.408.947.699 1.443.874.495.174.91.282 1.246.326.335.044.75.066 1.246.066h.917c.408 0 .904-.066 1.486-.197.583-.13 1.202-.326 1.858-.589s1.246-.539 1.77-.831 1.049-.612 1.574-.962l1.224 2.317h6.294l-3.541-5.333 2.491-2.447a78.23 78.23 0 0 1 1.551-1.596 24.056 24.056 0 0 0 1.465-1.595l-1.399-1.792c-.32.437-.714.99-1.18 1.661zm-42.595-10.426c-.947-.394-1.989-.59-3.126-.59-2.272 0-4.261.751-5.966 2.251-1.705 1.501-2.557 3.33-2.557 5.485 0 1.37.335 2.419 1.006 3.147.67.729 1.551 1.384 2.644 1.967 1.092.583 2.003 1.13 2.732 1.64.729.509 1.093 1.23 1.093 2.164 0 .874-.379 1.741-1.136 2.6-.758.86-1.895 1.289-3.41 1.289-1.864 0-2.929-.466-3.19-1.398-.263-.933-.408-1.617-.437-2.054h-.438l-1.661 3.934c.408.32.962.634 1.661.939.699.306 1.807.458 3.322.458 2.71 0 4.954-.787 6.731-2.36 1.777-1.573 2.666-3.482 2.666-5.726 0-1.165-.262-2.12-.787-2.863-.523-.742-1.252-1.392-2.185-1.945-.933-.553-1.981-1.15-3.147-1.792-.962-.699-1.441-1.529-1.441-2.491 0-.991.399-1.814 1.201-2.47.801-.655 1.741-.983 2.819-.983.903 0 1.654.284 2.251.852.598.568.896 1.188.896 1.858h.437l1.574-2.929c-.088-.261-.605-.589-1.552-.983zm88.469 1.792c-1.734-1.588-4.101-2.382-7.103-2.382-3.759 0-7.11 1.297-10.053 3.891s-4.415 5.872-4.415 9.835c0 2.535.845 4.632 2.535 6.293s3.992 2.491 6.906 2.491c4.05 0 7.518-1.34 10.402-4.021s4.328-5.974 4.328-9.879c.001-2.563-.866-4.639-2.6-6.228zm46.004-1.726-2.972 14.425-10.621-14.425h-2.798l-4.283 21.462h2.491l3.06-15.298 10.928 15.254h2.36l4.196-21.418-1.224.131-1.137-.131zm-130.736 1.355c-.088.524-.204.918-.35 1.18l2.623-.218 3.147-.131-3.716 19.319h4.546l3.759-19.319 2.754.131c.494 0 .888.022 1.18.065l1.617.241a5.625 5.625 0 0 1 .109-1.442c.102-.524.226-.918.372-1.181H120.5c0 .378-.044.831-.131 1.355zm-18.358-1.137c-.379 0-.772-.043-1.18-.131l-2.973 14.512-10.709-14.6h-2.667l-4.327 21.462h2.492l2.928-15.298 10.928 15.298h2.448l4.24-21.375c-.35.089-.744.132-1.18.132zm-22.774 4.699c.029-.247.044-.473.044-.677 0-.524-.073-.983-.219-1.376a5.648 5.648 0 0 0-.677-1.246c-.307-.437-.845-.794-1.618-1.071-.771-.277-1.668-.416-2.688-.416h-8.261l-4.239 21.331h4.72l1.924-9.747h.393l3.803 9.747h5.42l-4.633-10.447c.523-.146 1.084-.334 1.682-.567s1.21-.583 1.836-1.049a6.894 6.894 0 0 0 1.595-1.661c.438-.641.729-1.384.875-2.229 0-.147.014-.343.043-.592zm189.79-5.223c-4.051 0-7.555 1.333-10.512 4-2.959 2.666-4.437 5.98-4.437 9.944 0 2.885 1.107 5.027 3.322 6.424 2.214 1.398 4.589 2.098 7.125 2.098 1.34 0 2.702-.139 4.086-.415a45.547 45.547 0 0 0 4.48-1.158l1.661-8.437c-.524.088-1.122.131-1.792.131-1.195 0-2.113-.073-2.753-.219l-1.355 7.125a4.61 4.61 0 0 1-1.618.765c-.612.16-1.515.24-2.71.24-1.69 0-3.001-.539-3.935-1.617-.932-1.078-1.398-2.565-1.398-4.459 0-.99.232-2.477.699-4.458s1.494-3.832 3.082-5.551c1.588-1.719 3.591-2.579 6.01-2.579 1.078 0 2.199.298 3.365.896 1.166.597 1.909 1.361 2.23 2.294h.437l1.398-3.016c-1.776-1.338-4.238-2.008-7.385-2.008zm-39.339.437c-.583 0-.991-.043-1.224-.131l-2.798 13.943c-.291 1.458-1.026 2.813-2.207 4.065-1.181 1.253-2.761 1.879-4.743 1.879-1.516 0-2.681-.422-3.497-1.267-.816-.846-1.224-1.924-1.224-3.235 0-.408.043-.816.131-1.224l2.71-14.118c-.438.146-1.151.219-2.142.219-1.137 0-1.968-.073-2.491-.219l-2.623 14.118a8.082 8.082 0 0 0-.175 1.661c0 2.215.831 3.774 2.491 4.677 1.661.904 3.57 1.355 5.727 1.355 2.71 0 4.99-.699 6.841-2.098 1.85-1.398 3.023-3.336 3.519-5.813l2.841-13.943c-.32.088-.699.131-1.136.131zM73.992 19.165c-.117.364-.321.75-.612 1.159-.292.408-.612.75-.961 1.027a3.66 3.66 0 0 1-1.115.611c-.393.131-.721.204-.984.219-.262.015-.524.022-.786.022h-.962l1.618-8.349h1.966c.524 0 .998.146 1.421.438.423.292.685.583.787.875.101.292.153.685.153 1.18 0 .438-.059.918-.175 1.443-.116.551-.233 1.01-.35 1.375zm124.989 10.119c-1.501 1.69-3.49 2.535-5.966 2.535-1.633 0-2.82-.532-3.563-1.595-.743-1.063-1.114-2.44-1.114-4.131 0-.67.072-1.391.218-2.164s.481-1.989 1.005-3.649c.524-1.661 1.464-3.271 2.819-4.831 1.355-1.559 3.126-2.339 5.311-2.339 1.573 0 2.819.576 3.737 1.727.918 1.151 1.378 2.659 1.378 4.524a12.17 12.17 0 0 1-.438 3.191c-.757 2.798-1.886 5.042-3.387 6.732zm-47.906.984c-.277.16-.685.321-1.224.48-.539.16-.962.263-1.269.306a5.742 5.742 0 0 1-.808.065c-.7 0-1.516-.226-2.448-.677-.932-.451-1.398-1.436-1.398-2.951a3.503 3.503 0 0 1 .765-2.579c.598-.758 1.114-1.297 1.552-1.618.437-.32.786-.524 1.049-.611l4.372 7.168c-.117.118-.314.256-.591.417zM7.815 4.543h13.507l-1.049 5.246H6.766zM6.358 12.438h13.507l-1.05 5.246H5.309zM4.9 20.212h13.507l-1.049 5.246H3.851zM23.944 4.543h5.158l-4.108 20.982h-5.159z"/><path d="M31.718 4.543h5.158L31.2 33.392H2.133l1.049-5.157h23.997z"/></svg>