<svg width="78" height="10" viewBox="0 0 78 10" fill="none" xmlns="http://www.w3.org/2000/svg">
<path d="M1.09776 4.15864C1.31732 2.41513 2.76378 1.09781 4.46854 1.09781C6.17331 1.09781 7.61977 2.41513 7.83932 4.15864L7.85224 4.21029H1.08485L1.09776 4.15864ZM7.21941 6.6512C6.57367 7.56816 5.55339 8.11058 4.45563 8.11058C2.8671 8.11058 1.47229 6.94824 1.13651 5.3468L1.12359 5.29514H6.99986H8.64005H8.87251C8.92417 4.98519 8.91126 4.63648 8.91126 4.63648C8.91126 4.62357 8.91126 4.61066 8.91126 4.61066C8.91126 2.07934 6.90945 0.0258789 4.45563 0.0258789C2.0018 0.0258789 0 2.07934 0 4.61066C0 7.14197 2.0018 9.19543 4.45563 9.19543C6.13456 9.19543 7.6456 8.23973 8.42049 6.70286L8.52381 6.48331H7.32273C7.2969 6.5608 7.25815 6.61246 7.21941 6.6512Z" fill="white"/>
<path d="M13.9094 9.19551C13.4186 9.19551 12.9407 9.10511 12.5016 8.93721C12.0625 8.76932 11.688 8.51102 11.3651 8.18815C11.0293 7.86528 10.771 7.46492 10.6031 7.02581C10.4223 6.56088 10.3448 6.0572 10.3448 5.52769V0.193848H11.378V5.4502C11.378 5.86348 11.4297 6.25092 11.5588 6.59962C11.688 6.93541 11.8688 7.21953 12.1142 7.46492C12.3467 7.7103 12.6179 7.89111 12.9278 8.02026C13.2378 8.14941 13.5736 8.21398 13.9094 8.21398C14.2581 8.21398 14.5938 8.14941 14.9038 8.02026C15.2138 7.89111 15.485 7.7103 15.7174 7.46492C15.9499 7.21953 16.1436 6.92249 16.2728 6.59962C16.4148 6.25092 16.4923 5.86347 16.4923 5.46311V0.206763H17.5255V5.5406C17.5255 6.07011 17.4222 6.57379 17.2285 7.03873C17.0477 7.47783 16.7894 7.86528 16.4536 8.20107C16.1307 8.52394 15.7433 8.78223 15.3042 8.95013C14.878 9.1051 14.4001 9.19551 13.9094 9.19551Z" fill="white"/>
<path d="M18.9978 8.96318V3.91347C18.9978 3.53894 19.0365 3.16441 19.127 2.81571C19.2432 2.32494 19.4498 1.89875 19.721 1.52422C20.0568 1.0722 20.5218 0.710585 21.0771 0.452288C21.7228 0.168161 22.5106 0.0131836 23.4276 0.0131836H23.5955V1.11095H23.4276C22.756 1.11095 22.1878 1.20135 21.7228 1.36924C21.3096 1.52422 20.9738 1.74378 20.7284 2.0279C20.5088 2.27329 20.3409 2.57033 20.2376 2.91903C20.1472 3.21607 20.1085 3.53894 20.0956 3.90056V8.95027H18.9978V8.96318Z" fill="white"/>
<path d="M40.1523 8.96292V4.3394C40.1523 3.97778 40.1135 3.65491 39.9973 3.35787C39.894 3.08665 39.739 2.84127 39.5453 2.63463C39.3515 2.44091 39.132 2.28593 38.8866 2.18261C38.6283 2.07929 38.3571 2.01472 38.073 2.01472C37.7888 2.01472 37.5047 2.06638 37.2464 2.18261C37.001 2.28593 36.7686 2.44091 36.5878 2.63463C36.394 2.84127 36.2391 3.08665 36.1228 3.35787C36.0066 3.65491 35.9291 3.99069 35.9291 4.3394V8.95H33.8885V4.24899C33.8885 3.64199 34.0177 3.06082 34.2243 2.54423C34.431 2.02764 34.728 1.57562 35.1155 1.18817C35.5029 0.813638 35.942 0.516594 36.4457 0.309956C36.9494 0.103318 37.4918 0 38.0601 0C38.6283 0 39.1707 0.103318 39.6744 0.309956C40.1781 0.516594 40.6301 0.800723 41.0046 1.18817C41.3921 1.57562 41.6891 2.02764 41.8958 2.54423C42.1024 3.07374 42.1928 3.65491 42.1928 4.26191V8.96292H40.1523Z" fill="white"/>
<path d="M47.6299 1.85979C46.4805 1.85979 45.4602 2.62177 45.0986 3.74536L45.0728 3.83576H50.2L50.1613 3.74536C49.7996 2.60885 48.7923 1.85979 47.6299 1.85979ZM47.6299 9.19543C45.1761 9.19543 43.1743 7.14197 43.1743 4.61066C43.1743 2.07934 45.1761 0.0258789 47.6299 0.0258789C50.0838 0.0258789 52.0856 2.07934 52.0856 4.61066C52.0856 4.84312 52.0727 5.07559 52.0339 5.30806L52.021 5.37263H45.0728L45.0986 5.46303C45.4602 6.58663 46.4805 7.34861 47.6299 7.34861C48.2628 7.34861 48.8439 7.12905 49.3347 6.71578C49.3347 6.71578 49.4639 6.59954 49.4768 6.58663H51.6465L51.5819 6.70286C50.8199 8.23973 49.3089 9.19543 47.6299 9.19543Z" fill="white"/>
<path d="M52.7831 0.245506V0.193848H54.9915C55.2627 2.31189 55.9601 5.65684 56.5542 7.16787C57.1871 5.65684 57.9232 2.29897 58.1944 0.193848H60.0283C60.3124 2.31189 61.0357 5.51477 61.6814 7.16787C62.2755 5.51477 62.96 2.29897 63.2441 0.193848H65.4396V0.245506C64.936 3.5388 63.9674 6.93541 63.1537 8.95012H60.4029C59.9508 7.85236 59.3955 6.16051 59.1114 4.63656C58.8402 6.1476 58.2461 7.94276 57.8328 8.95012H55.0819C54.1133 6.7546 53.0672 3.04803 52.7831 0.245506Z" fill="white"/>
<path d="M66.3437 8.57572V6.89678H66.4341C66.9249 7.05176 68.0097 7.2584 68.7717 7.2584H69.2237C69.9341 7.2584 70.4765 7.03885 70.4765 6.31561C70.4765 5.77319 69.9986 5.55364 69.482 5.41157L68.126 5.04996C67.1315 4.79166 66.3308 4.10717 66.3308 2.60905C66.3308 0.852628 67.7773 0.129395 69.5337 0.129395H69.9857C70.5281 0.129395 71.613 0.271458 72.1167 0.452266V2.11828H72.0263C71.5742 1.98913 70.4894 1.84707 69.9986 1.84707H69.5983C68.9654 1.84707 68.423 1.97622 68.423 2.60905C68.423 3.09981 68.7975 3.30645 69.2367 3.42269L70.5927 3.79722C71.8971 4.14592 72.5816 4.92081 72.5816 6.31561C72.5816 8.25284 71.1868 8.97608 69.2496 8.97608H68.7975C68.1001 8.97608 66.9636 8.79527 66.3437 8.57572Z" fill="white"/>
<path d="M77.5021 7.12905C77.5021 8.14933 76.6756 8.97588 75.6553 8.97588C74.635 8.97588 73.8085 8.14933 73.8085 7.12905C73.8085 6.10878 74.635 5.28223 75.6553 5.28223C76.6756 5.28223 77.5021 6.10878 77.5021 7.12905Z" fill="white"/>
<path d="M28.3998 7.96831C26.6692 7.96831 25.2744 6.47018 25.2744 4.63627C25.2744 2.80236 26.6821 1.30423 28.3998 1.30423C30.1304 1.30423 31.5252 2.80236 31.5252 4.63627C31.5252 6.47018 30.1304 7.96831 28.3998 7.96831ZM28.3998 0.0385742C25.9201 0.0385742 23.9183 2.09204 23.9183 4.62335C23.9183 7.15467 25.9201 9.20813 28.3998 9.20813C30.8794 9.20813 32.8813 7.15467 32.8813 4.62335C32.8813 2.09204 30.8794 0.0385742 28.3998 0.0385742Z" fill="white"/>
</svg>
