<svg width="61" height="15" viewBox="0 0 61 15" fill="none" xmlns="http://www.w3.org/2000/svg">
<path d="M2.04316 0.356658H5.01133L7.52208 5.91033L10.1141 0.356658H13.0823L15.0442 14.6433H11.2425L10.4089 8.77378H10.3683L7.52208 14.7452L4.67589 8.77378H4.63523L3.8017 14.6433H0L2.04316 0.356658ZM16.3148 0.356658H23.9487L24.5179 4.12704H20.0352V5.61481H22.9627V9.38519H20.0352V10.873H25.0262L24.0605 14.6433H16.3148V0.356658ZM25.4836 0.356658H34.2661L34.6422 3.96399H31.735V14.6332H28.0147V3.96399H25.1075L25.4836 0.356658ZM35.7095 0.356658H40.5989C42.0627 0.356658 43.2316 0.754075 44.0957 1.53872C44.9597 2.32337 45.3968 3.46467 45.3968 4.94226C45.3968 6.41984 44.7462 7.59171 43.4553 8.45788L46.1896 14.6433H41.9915L39.4808 8.7534H39.4401V14.6433H35.7197V0.356658H35.7095ZM39.4299 7.06182C40.1516 7.06182 40.7107 6.91916 41.097 6.64402C41.4833 6.36889 41.6662 5.92052 41.6662 5.29891C41.6662 4.67731 41.4731 4.22894 41.097 3.9538C40.7107 3.67867 40.1618 3.53601 39.4299 3.53601V7.06182ZM60.4308 10.394C60.0445 11.3111 59.5159 12.106 58.8349 12.8091C58.1538 13.502 57.3711 14.0421 56.4766 14.4293C55.5821 14.8166 54.6571 15 53.6812 15C52.7054 15 51.7702 14.8064 50.8859 14.4293C49.9913 14.0421 49.2086 13.502 48.5276 12.8091C47.8465 12.1162 47.318 11.3111 46.9317 10.394C46.5454 9.4769 46.3624 8.51902 46.3624 7.5C46.3624 6.48098 46.5556 5.51291 46.9317 4.60598C47.318 3.68886 47.8465 2.89402 48.5276 2.1909C49.2086 1.49796 49.9913 0.95788 50.8859 0.570651C51.7804 0.183423 52.7054 0 53.6812 0C54.6571 0 55.5922 0.193613 56.4766 0.570651C57.3711 0.95788 58.1538 1.49796 58.8349 2.1909C59.5159 2.88383 60.0445 3.68886 60.4308 4.60598C60.817 5.5231 61 6.48098 61 7.5C61 8.51902 60.8069 9.48709 60.4308 10.394ZM56.934 6.12432C56.751 5.68614 56.4969 5.28872 56.1716 4.94226C55.8464 4.59579 55.4601 4.33084 55.0332 4.13723C54.6062 3.94361 54.1488 3.8519 53.6812 3.8519C53.2035 3.8519 52.7562 3.94361 52.3293 4.12704C51.9024 4.31046 51.5262 4.57541 51.201 4.91168C50.8757 5.24796 50.6216 5.63519 50.4386 6.08356C50.2556 6.52174 50.1641 7.00068 50.1641 7.5C50.1641 7.98913 50.2556 8.45788 50.4386 8.90625C50.6216 9.35462 50.8757 9.75204 51.201 10.0883C51.5262 10.4246 51.9024 10.6895 52.3293 10.873C52.7562 11.0564 53.2136 11.1481 53.6812 11.1481C54.159 11.1481 54.6062 11.0564 55.0332 10.8628C55.4601 10.6692 55.8362 10.4042 56.1716 10.0577C56.4969 9.71128 56.751 9.32405 56.934 8.87568C57.117 8.4375 57.1983 7.96875 57.1983 7.5C57.1983 7.03125 57.1068 6.5625 56.934 6.12432Z" fill="white"/>
</svg>
