<svg width="81" height="14" viewBox="0 0 81 14" fill="none" xmlns="http://www.w3.org/2000/svg">
<path d="M22.3112 13.6353L16.9218 6.64544V12.9465L18.0209 13.2098V13.4993H15.5147V13.2098L16.4124 12.9465V6.08105C16.1939 5.87617 15.9308 5.72552 15.6442 5.6411C15.5348 5.61795 15.3881 5.5919 15.3881 5.5919V5.30246H17.5145L22.1184 11.3227V5.86107L21.0193 5.59479V5.30536H23.5255V5.59479L22.6278 5.86107V12.11C22.6278 12.6889 22.668 13.5311 22.6767 13.6382L22.3112 13.6353ZM33.5793 9.1838C33.5793 12.0782 31.5651 13.7569 29.3639 13.7569C27.1626 13.7569 25.1398 12.055 25.1398 9.40956C25.1398 6.76411 27.154 5.04486 29.3437 5.04486C29.8949 5.02656 30.4441 5.12029 30.9585 5.32045C31.4728 5.5206 31.9417 5.82307 32.3372 6.20975C32.7326 6.59643 33.0464 7.05938 33.2599 7.57089C33.4733 8.0824 33.582 8.63196 33.5793 9.18669V9.1838ZM32.178 9.61795C32.178 7.4906 30.9119 5.42692 29.1912 5.42692C27.3612 5.42692 26.5353 7.20695 26.5353 9.11144C26.5353 11.0159 27.5798 13.3777 29.5451 13.3777C31.3925 13.3777 32.178 11.4964 32.178 9.61795ZM35.3202 5.85529L34.457 5.589V5.29957H37.7632V5.589L36.7273 5.85529L39.0091 12.1129L41.2909 5.85529L40.255 5.589V5.29957H42.7009V5.589L41.8376 5.85529L38.9803 13.6556H38.2494L35.3202 5.85529ZM54.8581 9.31404H54.3344V5.73083C56.0609 5.73083 57.0881 6.13025 57.0881 7.54848C57.0795 8.60203 56.1817 9.31404 54.8581 9.31404ZM69.6511 13.2098L70.8021 12.9465V5.85818L69.6511 5.5919V5.30246H73.2393V5.5919L72.0883 5.85818V12.9465L73.2393 13.2098V13.4993H69.6511V13.2098ZM75.4377 11.2475H75.665L76.4275 13.013C76.8808 13.2421 77.3792 13.3666 77.8864 13.3777C78.8762 13.3777 79.7797 12.7988 79.7797 11.7627C79.7797 10.9754 79.2733 10.5065 78.4532 10.0753L77.6418 9.65268C76.6721 9.14617 75.7024 8.42837 75.7024 7.27352C75.7024 6.01737 76.5656 5.04776 78.413 5.04776C79.0621 5.05439 79.7064 5.16078 80.3236 5.36324L80.5164 7.26194H80.2718L79.5668 5.73951C79.2018 5.53449 78.7907 5.42688 78.3727 5.42692C77.4375 5.42692 76.8016 6.00579 76.8016 6.80753C76.8016 7.53401 77.2821 7.99132 78.1051 8.41969L79.0661 8.9233C80.3783 9.60637 80.9998 10.2402 80.9998 11.4124C80.9998 12.8596 79.6503 13.7598 77.9727 13.7598C77.1829 13.7719 76.3965 13.6535 75.6448 13.4096L75.4377 11.2475ZM42.1743 13.2098L43.098 12.9465L45.9495 5.29667L46.902 5.05065L49.8456 12.9436L50.7693 13.2098V13.4993H47.276V13.2098L48.4587 12.9436L47.6242 10.6744H44.4878L43.6591 12.9436L44.8417 13.207V13.4964H42.1743V13.2098ZM44.7065 10.0695H47.4199L46.0732 6.411L44.7065 10.0695ZM56.504 9.4906C56.7918 9.41824 58.406 9.00434 58.406 7.46455C58.406 6.22866 57.4651 5.27063 55.1459 5.27063C53.7071 5.27063 52.2684 5.30246 52.0871 5.30825V5.59769L53.0338 5.86397V12.9436L52.0871 13.2098V13.4993H55.4365V13.2098L54.3373 12.9436V9.74241H55.284L57.7039 13.5051H59.8476V13.2156L58.7628 12.9262L56.504 9.4906ZM63.5768 5.72793V12.9465L62.4258 13.2098V13.4993H66.014V13.2098L64.863 12.9465V5.73083H66.7995L67.4383 7.11433H67.6858L67.5016 5.31115H60.9382L60.754 7.11433H61.0015L61.6345 5.7453L63.5768 5.72793ZM2.17481 10.9378L3.32579 0H0.9375L2.08848 10.9378H2.17481Z" fill="#0460A9"/>
</svg>
