<svg xmlns="http://www.w3.org/2000/svg" width="791.496" height="74.793"><path d="M43.415 564.759 15.36 548.564l28.056-16.199v32.394z" style="fill:#98d5e9;fill-opacity:1;fill-rule:nonzero;stroke:none" transform="translate(45.748 -494.966)"/><path d="m-12.691 564.759-28.057-16.195 28.057-16.199v32.394z" style="fill:#0065a0;fill-opacity:1;fill-rule:nonzero;stroke:none" transform="translate(45.748 -494.966)"/><path d="m15.358 548.565 28.057-16.198v-32.401l-56.106 32.4 28.05 16.2z" style="fill:#00a7ce;fill-opacity:1;fill-rule:nonzero;stroke:none" transform="translate(45.748 -494.966)"/><path d="m71.465 548.565-28.049-16.198 28.05-16.2v32.398z" style="fill:#0065a0;fill-opacity:1;fill-rule:nonzero;stroke:none" transform="translate(45.748 -494.966)"/><path d="m43.415 564.759 28.05-16.195-28.05-16.199v32.394zM-12.691 499.969l-28.057 16.198v32.397l28.057-16.202v-32.393z" style="fill:#00a7ce;fill-opacity:1;fill-rule:nonzero;stroke:none" transform="translate(45.748 -494.966)"/><path d="m-12.691 532.366 28.049-16.199-28.05-16.198v32.397z" style="fill:#002d73;fill-opacity:1;fill-rule:nonzero;stroke:none" transform="translate(45.748 -494.966)"/><path d="m-12.691 564.759 28.049-16.195-28.05-16.199v32.394z" style="fill:#98d5e9;fill-opacity:1;fill-rule:nonzero;stroke:none" transform="translate(45.748 -494.966)"/><path d="m43.415 532.366 28.05-16.199-28.05-16.198v32.397z" style="fill:#002d73;fill-opacity:1;fill-rule:nonzero;stroke:none" transform="translate(45.748 -494.966)"/><path d="m281.064 504.195-17.17 43.87h-.234l-17.655-43.87h-10.54l24.4 56.335h6.935l24.021-56.335h-9.757zm17.726-.006v56.346h36.286v-7.37h-27.153v-18.548h23.268v-7.375h-23.268v-15.675h26.63v-7.378H298.79zm-165.689 49.753c-11.704 0-21.3-9.061-21.3-21.62 0-12.509 9.596-21.533 21.3-21.533 11.663 0 21.228 9.024 21.228 21.533 0 12.559-9.565 21.62-21.228 21.62m0-50.78c-18.005 0-31.072 12.262-31.072 29.16 0 16.948 13.067 29.25 31.072 29.25 17.968 0 30.997-12.302 30.997-29.25 0-16.898-13.029-29.16-30.997-29.16m41.285 1.033v56.343h33.763v-7.39h-24.646v-48.953h-9.117zm43.82 0v56.343h9.295v-56.343h-9.294zm153.477 32.496c9.487-1.107 16.293-7.45 16.293-16.921 0-5.749-4.243-15.582-18.875-15.582h-23.028v56.347h9.133v-49.134h11.677c8.124 0 11.866 3.95 11.866 9.374 0 5.428-4.148 9.35-13.051 9.35h-9.773l24.258 30.41h11.234l-19.734-23.844zm99.972 23.84h-7.228l-12.32-34.414-12.326 34.415h-7.05l-20.043-56.336h10.096l13.91 43.08h.2l11.218-32.46-3.825-10.62h9.253l14.667 42.829h.214l13.014-42.829h9.336l-19.116 56.336zm114.383-12.35-17.78-43.98h-12.851v56.335h8.692v-44.014h.192l17.651 44.014h7.744l18.476-44.357h.192v44.357h8.835v-56.335h-12.667l-18.205 43.98h-.279zm-48.637-43.986-15.83 26.6-14.696-26.6h-11.022l20.776 34.117v22.218h9.133v-22.218l21.94-34.117h-10.3zm194.011 43.014-28.425-43.02H690.82v56.35h9.125V515.07h.203l30.06 45.468h10.54v-56.35h-9.129v43.02h-.207zm-77.238-32.774 8.839 23.024h-18.05l8.91-23.024h.3zm-4.928-10.24-22.613 56.344h9.35l6.05-15.713h23.698l6.053 15.713h9.667l-22.24-56.343h-9.965z" style="fill:#00a7ce;fill-opacity:1;fill-rule:nonzero;stroke:none" transform="translate(45.748 -494.966)"/></svg>